Monoid-Bitmap.sfdir
StartChar: exclam
Encoding: 33 33 56
GlifName: exclam
Width: 1024
VWidth: 0
Flags: W
HStem: -16 288<472.125 679.875> 1388 20G<502 650>
VStem: 432 288<24.125 231.875> 512 128<512 1408>
LayerCount: 5
Back
Fore
SplineSet
576 272 m 0xe0
 661 272 720 213 720 128 c 0
 720 43 661 -16 576 -16 c 0
 491 -16 432 43 432 128 c 0
 432 213 491 272 576 272 c 0xe0
640 512 m 1xd0
 512 512 l 1
 502 1408 l 1
 650 1408 l 1
 640 512 l 1xd0
EndSplineSet
Layer: 2
Layer: 3
Layer: 4
Substitution2: "Single Substitution lookup 37 subtable" larsenwork2
Substitution2: "Single Substitution lookup 34 subtable" larsenwork1
Substitution2: "Single Substitution lookup 15 subtable" larsenwork5
EndChar
StartChar: numbersign
Encoding: 35 35 58
GlifName: numbersign
Width: 1024
VWidth: 0
Flags: W
HStem: 0 21G<384 512 768 896> 384 120<256 384 512 768 896 1024> 904 120<256 384 512 768 896 1024> 1388 20G<384 512 768 896>
VStem: 384 128<0 384 504 904 1024 1408> 768 128<0 384 504 904 1024 1408>
LayerCount: 5
Back
SplineSet
640 -380 m 25
 896 1916 l 1049
256 -380 m 25
 512 1916 l 1049
1024 1148 m 5
 1024 1028 l 5
 128 1028 l 5
 128 1148 l 5
 1024 1148 l 5
1024 508 m 5
 1024 388 l 5
 128 388 l 5
 128 508 l 5
 1024 508 l 5
EndSplineSet
Fore
SplineSet
512 904 m 1
 512 504 l 1
 768 504 l 1
 768 904 l 1
 512 904 l 1
1024 504 m 1
 1024 384 l 1
 896 384 l 1
 896 0 l 1
 768 0 l 1
 768 384 l 1
 512 384 l 1
 512 0 l 1
 384 0 l 1
 384 384 l 1
 256 384 l 1
 256 504 l 1
 384 504 l 1
 384 904 l 1
 256 904 l 1
 256 1024 l 1
 384 1024 l 1
 384 1408 l 1
 512 1408 l 1
 512 1024 l 1
 768 1024 l 1
 768 1408 l 1
 896 1408 l 1
 896 1024 l 1
 1024 1024 l 1
 1024 904 l 1
 896 904 l 1
 896 504 l 1
 1024 504 l 1
EndSplineSet
Layer: 2
SplineSet
1024 504 m 5
 1024 384 l 5
 896 384 l 5
 896 0 l 5
 768 0 l 5
 768 384 l 5
 512 384 l 5
 512 0 l 5
 384 0 l 5
 384 384 l 5
 256 384 l 5
 256 504 l 5
 384 504 l 5
 384 904 l 5
 256 904 l 5
 256 1024 l 5
 384 1024 l 5
 384 1408 l 5
 512 1408 l 5
 512 1024 l 5
 768 1024 l 5
 768 1408 l 5
 896 1408 l 5
 896 1024 l 5
 1024 1024 l 5
 1024 904 l 5
 896 904 l 5
 896 504 l 5
 1024 504 l 5
512 904 m 5
 512 504 l 5
 768 504 l 5
 768 904 l 5
 512 904 l 5
EndSplineSet
Layer: 3
Layer: 4
EndChar
StartChar: ampersand
Encoding: 38 38 61
GlifName: ampersand
Width: 1024
VWidth: 0
Flags: W
HStem: -16 120<385.372 761.284> 0 21G<932.61 1102> 1308 120<448.217 705.458>
VStem: 96 128<249.612 543.087> 239 128<955.483 1230.21> 785 128<957.339 1228.19> 896 128<300.833 640>
LayerCount: 5
Back
SplineSet
453 678 m 5xb8
 327 638 224 544 224 396 c 4
 224 235 351 104 576 104 c 4
 676 104 760 132 815 182 c 5
 453 678 l 5xb8
  Spiro
    453 678 v
    337.731 620.076 o
    255.311 525.888 o
    224 396 o
    265.178 248.871 o
    384.897 143.85 o
    576 104 o
    670.097 113.093 o
    750.888 139.59 o
    815 182 v
    0 0 z
  EndSpiro
505 819 m 5
 569 836 629 858 676 890 c 4
 737 931 785 999 785 1095 c 4x3c
 785 1219 704 1308 576 1308 c 4
 451 1308 367 1223 367 1094 c 4
 367 1013 399 965 437 913 c 6
 505 819 l 5
  Spiro
    505 819 v
    567.273 837.831 o
    625.055 861.174 o
    676 890 o
    731.322 939.978 o
    770.324 1008.37 o
    785 1095 o
    759.309 1205.24 o
    686.981 1280.39 o
    576 1308 o
    466.352 1281.24 o
    393.356 1206.72 o
    367 1094 o
    376.685 1022.69 o
    401.994 964.984 o
    437 913 [
    0 0 z
  EndSpiro
884 299 m 5
 895 338 896 383 896 431 c 6
 896 640 l 5
 1024 640 l 5
 1024 431 l 6
 1024 342 1017 254 971 179 c 5
 1102 0 l 5
 947 0 l 5x7a
 888 82 l 5
 812 20 702 -16 576 -16 c 4xba
 271 -16 96 177 96 396 c 4
 96 578 217 722 379 779 c 5
 331 845 l 6
 286 906 239 990 239 1094 c 4
 239 1293 383 1428 576 1428 c 4
 774 1428 913 1285 913 1095 c 4
 913 957 839 853 752 793 c 4
 694 754 639 735 580 716 c 5
 884 299 l 5
  Spiro
    884 299 v
    891.995 339.846 o
    895.335 384.157 o
    896 431 [
    896 640 v
    1024 640 v
    1024 431 ]
    1020.49 342.865 o
    1005.16 257.807 o
    971 179 v
    1102 0 v
    947 0 v
    888 82 v
    801.43 29.0806 o
    695.887 -4.39325 o
    576 -16 o
    316.213 42.0381 o
    152.555 192.035 o
    96 396 o
    133.299 563.367 o
    233.755 694.924 o
    379 779 v
    331 845 ]
    287.189 913.48 o
    252.826 996.868 o
    239 1094 o
    283.396 1268.89 o
    403.002 1385.71 o
    576 1428 o
    751.221 1383.97 o
    869.713 1265.63 o
    913 1095 o
    890.635 968.818 o
    832.336 867.208 o
    752 793 o
    694.798 759.954 o
    637.869 735.72 o
    580 716 v
    0 0 z
  EndSpiro
EndSplineSet
Fore
SplineSet
450 681 m 1xb8
 326 639 224 546 224 396 c 0
 224 235 351 104 576 104 c 0
 676 104 760 132 815 182 c 1
 450 681 l 1xb8
505 819 m 1
 647 856 785 924 785 1095 c 0x3c
 785 1219 704 1308 576 1308 c 0
 451 1308 367 1223 367 1094 c 0
 367 999 408 953 505 819 c 1
884 299 m 1
 895 338 896 383 896 431 c 2
 896 640 l 1
 1024 640 l 1
 1024 431 l 2
 1024 342 1017 254 971 179 c 1
 1102 0 l 1
 947 0 l 1x7a
 888 82 l 1
 812 20 702 -16 576 -16 c 0xba
 271 -16 96 177 96 396 c 0
 96 579 216 723 376 782 c 1
 297 892 239 969 239 1093 c 0
 239 1293 383 1428 576 1428 c 0
 774 1428 913 1285 913 1095 c 0
 913 924 798 774 580 716 c 1
 884 299 l 1
EndSplineSet
Layer: 2
SplineSet
576 1368 m 0
 736.81350708 1368 849 1256.08010864 849 1095 c 0
 849 933.919891357 736.81350708 822 576 822 c 0
 415.18649292 822 303 933.919891357 303 1095 c 0
 303 1256.08010864 415.18649292 1368 576 1368 c 0
  Spiro
    576 1368 o
    718.129 1333.09 o
    814.026 1237.25 o
    849 1095 o
    814.026 952.752 o
    718.129 856.915 o
    576 822 o
    433.871 856.915 o
    337.974 952.752 o
    303 1095 o
    337.974 1237.25 o
    433.871 1333.09 o
    0 0 z
  EndSpiro
576 748 m 0
 821.049538353 748 992 603.693359375 992 396 c 0
 992 188.306640625 821.049538353 44 576 44 c 0
 330.950461647 44 160 188.306640625 160 396 c 0
 160 603.693359375 330.950461647 748 576 748 c 0
  Spiro
    576 748 o
    792.578 702.982 o
    938.707 579.411 o
    992 396 o
    938.707 212.589 o
    792.578 89.018 o
    576 44 o
    359.422 89.018 o
    213.293 212.589 o
    160 396 o
    213.293 579.411 o
    359.422 702.982 o
    0 0 z
  EndSpiro
EndSplineSet
Layer: 3
SplineSet
1152 -175 m 1
 384 879 l 2
 360.999522274 910.565759795 338.883513635 943.216565198 324.502508724 979.529178224 c 0
 310.121503813 1015.84179125 303.010474278 1054.94338651 303 1094 c 0
 302.990399433 1129.79870878 308.746020217 1165.68588502 320.941083894 1199.34339628 c 0
 333.136147571 1233.00090754 352.046011801 1264.33200212 377 1290 c 0
 402.516231913 1316.2463291 434.157544705 1336.33213586 468.410513011 1349.24267592 c 0
 502.663481317 1362.15321598 539.395047794 1368.15923721 576 1368 c 0
 612.874226985 1367.8395914 649.81124465 1361.4324047 684.219004872 1348.17192269 c 0
 718.626765095 1334.91144068 750.388250983 1314.52871386 776 1288 c 0
 824.976059381 1237.27047488 849.077215446 1165.5133544 849 1095 c 0
 848.946192428 1045.86277919 837.673129589 996.593560983 815 953 c 0
 791.574632064 907.960112514 755.85497708 869.782265266 713.912869037 841.178088987 c 0
 671.970760994 812.573912707 624.363283272 793.298944667 576.017880437 777.805031267 c 0
 527.672477602 762.311117867 478.27248261 750.169541002 430.300505276 733.555428978 c 0
 382.328527941 716.941316955 335.618694677 695.454243883 295 665 c 0
 253.353677333 633.77528248 218.587163609 593.212533342 195.261778413 546.679474326 c 0
 171.936393216 500.14641531 159.959000452 448.051873117 160 396 c 0
 160.039037594 346.438968203 170.924366158 296.868912844 192.030060925 252.026443631 c 0
 213.135755692 207.183974418 244.56461151 167.289268262 283 136 c 0
 323.46776169 103.056228616 371.320683023 79.7535546738 421.40853775 65.1200787325 c 0
 471.496392476 50.4866027913 523.818280905 43.9987727462 576 44 c 0
 628.125985829 44.001225943 680.481161795 50.5148324934 730.180585799 66.2337909157 c 0
 779.880009802 81.952749338 826.871933111 107.507279296 864.538572457 143.539801835 c 0
 902.205211802 179.572324369 929.63040288 225.944690768 944.153822553 276.006539322 c 0
 958.677242227 326.068387876 959.999999998 378.874014161 960 431 c 2
 960 640 l 1025
  Spiro
    1152 -175 {
    384 879 ]
    303 1094 o
    377 1290 o
    576 1368 o
    776 1288 o
    849 1095 o
    815 953 o
    295 665 o
    160 396 o
    283 136 o
    576 44 o
    960 431 [
    960 640 v
    0 0 z
  EndSpiro
EndSplineSet
Layer: 4
Substitution2: "Single Substitution lookup 48 subtable" larsenwork6
Substitution2: "Single Substitution lookup 47 subtable" ampamp
EndChar
StartChar: hyphen
Encoding: 45 45 55
GlifName: hyphen
Width: 1024
VWidth: 0
Flags: W
HStem: 516 120<128 1024>
LayerCount: 5
Back
Fore
SplineSet
128 636 m 5
 1024 636 l 1
 1024 516 l 1
 128 516 l 5
 128 636 l 5
EndSplineSet
Layer: 2
Layer: 3
Layer: 4
Substitution2: "Single Substitution lookup 32 subtable" larsenwork
Substitution2: "Single Substitution lookup 31 subtable" ligaarrowleft
Substitution2: "Single Substitution lookup 27 subtable" larsenwork1
Substitution2: "Single Substitution lookup 26 subtable" ligaarrowlefttwoheads
Substitution2: "Single Substitution lookup 22 subtable" larsenwork
Substitution2: "Single Substitution lookup 21 subtable" larsenwork
Substitution2: "Single Substitution lookup 20 subtable" ligaarrowleftlong
Substitution2: "Single Substitution lookup 19 subtable" larsenwork3
Substitution2: "Single Substitution lookup 17 subtable" commentstart
Substitution2: "Single Substitution lookup 16 subtable" larsenwork5
EndChar
StartChar: period
Encoding: 46 46 68
GlifName: period
Width: 1024
VWidth: 0
Flags: W
HStem: 0 240<384 640>
VStem: 384 256<0 240>
LayerCount: 5
Back
Fore
SplineSet
384 240 m 1
 640 240 l 1
 640 0 l 1
 384 0 l 1
 384 240 l 1
EndSplineSet
Layer: 2
Layer: 3
Layer: 4
Substitution2: "Single Substitution lookup 55 subtable" period2r
Substitution2: "Single Substitution lookup 54 subtable" period2l
Substitution2: "Single Substitution lookup 53 subtable" dotdotdot
Substitution2: "Single Substitution lookup 52 subtable" larsenwork
Substitution2: "Single Substitution lookup 51 subtable" larsenwork
EndChar
StartChar: slash
Encoding: 47 47 69
GlifName: slash
Width: 1024
VWidth: 0
Flags: W
LayerCount: 5
Back
SplineSet
238.034488438 -154.535563034 m 1
 125.965511562 -101.464436966 l 1
 913.965511562 1562.53556303 l 1
 1026.03448844 1509.46443697 l 1
 238.034488438 -154.535563034 l 1
EndSplineSet
Fore
SplineSet
238 -155 m 1
 125 -102 l 1
 914 1563 l 1
 1027 1510 l 1
 238 -155 l 1
EndSplineSet
Layer: 2
SplineSet
182 -128 m 5
 970 1536 l 1029
EndSplineSet
Layer: 3
Layer: 4
Substitution2: "Single Substitution lookup 64 subtable" ligadoubleslash
Substitution2: "Single Substitution lookup 63 subtable" larsenwork
Substitution2: "Single Substitution lookup 62 subtable" ligatrippleslash
Substitution2: "Single Substitution lookup 61 subtable" larsenwork1
Substitution2: "Single Substitution lookup 60 subtable" larsenwork1
EndChar
StartChar: one
Encoding: 49 49 71
GlifName: one
Width: 1024
VWidth: 0
Flags: W
HStem: 0 21G<640 768> 1388 20G<632.517 768>
VStem: 640 128<0 1246>
LayerCount: 5
Back
Fore
SplineSet
660 1408 m 5
 768 1408 l 5
 768 0 l 5
 640 0 l 5
 640 1246 l 5
 630 1246 l 5
 319 1022 l 5
 256 1114 l 5
 660 1408 l 5
EndSplineSet
Layer: 2
Layer: 3
Layer: 4
Substitution2: "'ss05' Style Set 5 lookup 56 subtable" one.base
EndChar
StartChar: two
Encoding: 50 50 72
GlifName: two
Width: 1024
VWidth: 0
Flags: W
HStem: 0 120<418 950> 1304 120<259.954 704.526>
VStem: 780 128<954.937 1229.72>
LayerCount: 5
Back
SplineSet
256 1393 m 5
 346 1410 456 1424 554 1424 c 4
 813 1424 908 1259 908 1093 c 4
 908 1006 880 949 852 899 c 6
 418 120 l 5
 896 120 l 5
 896 0 l 5
 256 0 l 5
 256 89 l 5
 738 955 l 6
 762 998 780 1033 780 1093 c 4
 780 1188 742 1304 554 1304 c 4
 452 1304 340 1288 256 1273 c 5
 256 1393 l 5
EndSplineSet
Fore
SplineSet
256 1393 m 1
 343 1410 449 1424 544 1424 c 0
 810 1424 908 1259 908 1093 c 0
 908 990 870 932 832 863 c 2
 418 120 l 1
 950 120 l 1
 950 0 l 1
 256 0 l 1
 256 89 l 1
 718 919 l 2
 750 976 780 1017 780 1093 c 0
 780 1188 740 1304 544 1304 c 0
 445 1304 337 1288 256 1273 c 1
 256 1393 l 1
EndSplineSet
Layer: 2
SplineSet
576 1364 m 4
 733.868164062 1364 844 1254.12988281 844 1096 c 4
 844 937.870076497 733.868164062 828 576 828 c 4
 418.131795247 828 308 937.870076497 308 1096 c 4
 308 1254.12988281 418.131795247 1364 576 1364 c 4
EndSplineSet
Layer: 3
SplineSet
192 1293 m 4
 248.355904097 1308.52974632 304.967301076 1323.17688803 362 1336 c 4
 428.18775421 1350.88151533 495.3409582 1364.00064682 563.175452299 1364.00064682 c 4
 564 1364 l 4
 603.210791242 1363.93844802 642.706382424 1359.01018897 679.650250993 1345.87091526 c 4
 716.594119563 1332.73164155 750.646621617 1311.0342795 777 1282 c 4
 800.08411194 1256.56756593 817.130103031 1225.90940022 828.042690246 1193.34254027 c 4
 838.854362991 1161.07684332 844.001344804 1126.98301712 844.001344804 1092.95287789 c 4
 844.001344804 1063.36742011 839.951057919 1034.17348812 831.244726667 1006.08964992 c 4
 822.640059437 978.333747312 809.142161828 952.385619678 795 927 c 6
 312 60 l 5
 896 60 l 1029
  Spiro
    192 1293 {
    362 1336 o
    564 1364 o
    777 1282 o
    844 1092 o
    795 927 [
    312 60 v
    896 60 v
    0 0 z
  EndSpiro
EndSplineSet
Layer: 4
EndChar
StartChar: six
Encoding: 54 54 76
GlifName: six
Width: 1024
VWidth: 0
Flags: W
HStem: -16 120<463.518 720.575> 792 120<470.531 721.095> 1304 120<489.088 832>
VStem: 256 128<194.411 701.589 787 1192.01> 800 128<193.295 703.173>
LayerCount: 5
Back
SplineSet
592 104 m 4
 779 104 800 261 800 448 c 4
 800 635 779 792 592 792 c 4
 405 792 384 635 384 448 c 4
 384 261 405 104 592 104 c 4
618 1424 m 4
 679 1424 749 1419 832 1408 c 5
 832 1288 l 5
 746 1300 674 1304 618 1304 c 4
 517 1304 452 1256 416 1173 c 4
 384 1100 384 998 384 896 c 6
 384 787 l 5
 394 787 l 5
 449 872 514 912 612 912 c 4
 760 912 857 829 900 712 c 4
 928 635 928 550 928 448 c 4
 928 366 928 271 896 184 c 4
 853 67 750 -16 592 -16 c 4
 434 -16 332 67 288 184 c 4
 263 251 256 321 256 415 c 6
 256 896 l 6
 256 1017 258 1122 296 1215 c 4
 343 1330 449 1424 618 1424 c 4
EndSplineSet
Fore
SplineSet
592 104 m 0
 779 104 800 261 800 448 c 0
 800 635 779 792 592 792 c 0
 405 792 384 635 384 448 c 0
 384 261 405 104 592 104 c 0
638 1424 m 0
 693 1424 757 1422 832 1418 c 1
 832 1298 l 1
 754 1302 689 1304 638 1304 c 0
 527 1304 453 1257 416 1173 c 0
 384 1100 384 998 384 896 c 2
 384 787 l 1
 394 787 l 1
 449 872 514 912 612 912 c 0
 760 912 857 829 900 712 c 0
 928 635 928 550 928 448 c 0
 928 366 928 271 896 184 c 0
 853 67 750 -16 592 -16 c 0
 434 -16 332 67 288 184 c 0
 263 251 256 321 256 415 c 2
 256 896 l 2
 256 1017 258 1122 296 1215 c 0
 343 1331 459 1424 638 1424 c 0
EndSplineSet
Layer: 2
SplineSet
592 852 m 4
 569.874950019 852 547.708987409 850.270562295 526 846 c 4
 485.669098677 838.066160283 447.076701406 820.262547848 416.241313788 793.083396194 c 4
 385.40592617 765.904244539 362.748306891 730.14912327 348.306511624 691.665854651 c 4
 319.422921089 614.699317412 319.999999999 530.20772261 320 448 c 4
 320 365.79227739 319.422921091 281.300682587 348.306511626 204.334145348 c 4
 362.748306893 165.850876729 385.405926172 130.09575546 416.241313789 102.916603806 c 4
 447.076701407 75.7374521517 485.669098677 57.9338397167 526 50 c 4
 547.708987409 45.7294377049 569.874950019 44 592 44 c 4
 614.125049981 44 636.291012591 45.7294377049 658 50 c 4
 698.330901323 57.9338397167 736.923298594 75.7374521519 767.758686212 102.916603806 c 4
 798.59407383 130.095755461 821.251693109 165.85087673 835.693488376 204.334145349 c 4
 864.577078911 281.300682588 864.000000001 365.79227739 864 448 c 4
 864 530.20772261 864.577078909 614.699317413 835.693488374 691.665854652 c 4
 821.251693107 730.149123271 798.594073828 765.90424454 767.758686211 793.083396194 c 4
 736.923298593 820.262547848 698.330901323 838.066160283 658 846 c 4
 636.291012591 850.270562295 614.125049981 852 592 852 c 4
  Spiro
    592 852 o
    526 846 o
    320 448 o
    526 50 o
    592 44 o
    658 50 o
    864 448 o
    658 846 o
    0 0 z
  EndSpiro
EndSplineSet
Layer: 3
Layer: 4
EndChar
StartChar: seven
Encoding: 55 55 77
GlifName: seven
Width: 1024
VWidth: 0
Flags: W
HStem: 0 21G<363 499.102> 1288 120<192 825>
LayerCount: 5
Back
Fore
SplineSet
192 1288 m 1
 192 1408 l 1
 960 1408 l 5
 960 1318 l 5
 492 0 l 1
 363 0 l 1
 825 1278 l 5
 825 1288 l 5
 192 1288 l 1
EndSplineSet
Layer: 2
Layer: 3
Layer: 4
EndChar
StartChar: less
Encoding: 60 60 82
GlifName: less
Width: 1024
VWidth: 0
Flags: W
LayerCount: 5
Back
SplineSet
931.853419358 200.5819367 m 1
 860.146580642 99.4180632999 l 1
 259.146580642 525.4180633 l 1
 259.146580642 626.5819367 l 1
 860.146580642 1052.5819367 l 1
 931.853419358 951.4180633 l 1
 402.214320665 576 l 1
 931.853419358 200.5819367 l 1
EndSplineSet
Fore
SplineSet
389 571 m 5
 900 95 l 5
 814 5 l 5
 256 531 l 5
 256 621 l 5
 814 1147 l 5
 900 1057 l 5
 389 581 l 5
 389 571 l 5
EndSplineSet
Layer: 2
SplineSet
896 150 m 5
 295 576 l 5
 896 1002 l 1029
EndSplineSet
Layer: 3
Layer: 4
Substitution2: "Single Substitution lookup 59 subtable" less2
Substitution2: "Single Substitution lookup 58 subtable" less1
Substitution2: "Single Substitution lookup 39 subtable" larsenwork3
Substitution2: "Single Substitution lookup 30 subtable" larsenwork2
Substitution2: "Single Substitution lookup 25 subtable" larsenwork1
Substitution2: "Single Substitution lookup 24 subtable" larsenwork1
Substitution2: "Single Substitution lookup 18 subtable" larsenwork3
Substitution2: "Single Substitution lookup 14 subtable" larsenwork5
EndChar
StartChar: equal
Encoding: 61 61 83
GlifName: equal
Width: 1024
VWidth: 0
Flags: W
HStem: 260 120<128 1024> 772 120<128 1024>
LayerCount: 5
Back
Fore
SplineSet
128 380 m 5
 1024 380 l 5
 1024 260 l 5
 128 260 l 5
 128 380 l 5
128 892 m 5
 1024 892 l 5
 1024 772 l 5
 128 772 l 5
 128 892 l 5
EndSplineSet
Layer: 2
Layer: 3
Layer: 4
Substitution2: "Single Substitution lookup 44 subtable" equalmore
Substitution2: "Single Substitution lookup 43 subtable" equalmore
Substitution2: "Single Substitution lookup 42 subtable" greaterequalliga
Substitution2: "Single Substitution lookup 40 subtable" lessequalliga
Substitution2: "Single Substitution lookup 38 subtable" notequalliga
Substitution2: "Single Substitution lookup 36 subtable" notequaltypeliga
Substitution2: "Single Substitution lookup 35 subtable" larsenwork1
EndChar
StartChar: greater
Encoding: 62 62 84
GlifName: greater
Width: 1024
VWidth: 0
Flags: W
LayerCount: 5
Back
Fore
SplineSet
763 571 m 5
 763 581 l 5
 252 1057 l 5
 338 1147 l 5
 896 621 l 5
 896 531 l 5
 338 5 l 5
 252 95 l 5
 763 571 l 5
EndSplineSet
Layer: 2
Layer: 3
Layer: 4
Substitution2: "Single Substitution lookup 57 subtable" greater2
Substitution2: "Single Substitution lookup 56 subtable" greater1
Substitution2: "Single Substitution lookup 41 subtable" larsenwork4
Substitution2: "Single Substitution lookup 33 subtable" ligaarrowright
Substitution2: "Single Substitution lookup 29 subtable" ligaarrowrighttwoheads
Substitution2: "Single Substitution lookup 28 subtable" larsenwork1
Substitution2: "Single Substitution lookup 23 subtable" ligaarrowrightlong
EndChar
StartChar: C
Encoding: 67 67 31
GlifName: C_
Width: 1024
VWidth: 0
Flags: W
HStem: -16 120<454.146 1018.69> 1304 120<453.497 988.93>
VStem: 112 128<353.191 1054.81>
AnchorPoint: "bottom" 704 0 basechar 0
AnchorPoint: "top" 640 1408 basechar 0
LayerCount: 5
Back
SplineSet
1024 173 m 5
 1024 49 l 5
 907 13 777 -16 643 -16 c 4
 543 -16 436 7 347 64 c 4
 246 129 175 237 143 364 c 4
 114 478 112 594 112 704 c 4
 112 814 114 930 143 1044 c 4
 176 1171 246 1278 347 1344 c 4
 436 1402 543 1424 643 1424 c 4
 766 1424 885 1401 994 1367 c 5
 994 1243 l 5
 881 1278 755 1304 643 1304 c 4
 430 1304 312 1188 268 1016 c 4
 243 919 240 813 240 704 c 4
 240 595 243 489 268 392 c 4
 312 220 430 104 643 104 c 4
 765 104 903 136 1024 173 c 5
  Spiro
    1024 173 v
    1024 49 v
    903.125 16.177 o
    775.203 -7.16503 o
    643 -16 o
    541.694 -7.94247 o
    440.976 17.9615 o
    347 64 o
    256.413 142.353 o
    187.61 244.334 o
    143 364 o
    122.088 478.256 o
    113.588 592.409 o
    112 704 o
    113.588 815.591 o
    122.088 929.744 o
    143 1044 o
    188.054 1163.44 o
    256.635 1265.2 o
    347 1344 o
    440.976 1390.48 o
    541.694 1416.16 o
    643 1424 o
    764.325 1416.79 o
    882.004 1396.86 o
    994 1367 v
    994 1243 v
    877.785 1274.34 o
    758.548 1295.98 o
    643 1304 o
    461.041 1267.63 o
    337.349 1166.98 o
    268 1016 o
    249.642 916.325 o
    241.7 811.671 o
    240 704 o
    241.7 596.329 o
    249.642 491.675 o
    268 392 o
    337.349 241.017 o
    461.041 140.374 o
    643 104 o
    768.982 113.648 o
    898.684 138.697 o
    0 0 z
  EndSpiro
EndSplineSet
Fore
SplineSet
1024 141 m 1
 1024 21 l 1
 913 1 790 -16 663 -16 c 0
 367 -16 201 142 143 364 c 0
 114 478 112 594 112 704 c 0
 112 814 114 930 143 1044 c 0
 202 1266 359 1424 653 1424 c 0
 772 1424 888 1412 994 1395 c 1
 994 1275 l 1
 884 1292 762 1304 653 1304 c 0
 424 1304 313 1188 268 1016 c 0
 243 919 240 813 240 704 c 0
 240 595 243 489 268 392 c 0
 314 220 428 104 663 104 c 0
 779 104 909 121 1024 141 c 1
EndSplineSet
Layer: 2
SplineSet
768 1354 m 0
 838.846354572 1343.50490046 908.562607991 1326.54427717 978 1309 c 0
 1036.08310479 1294.32453395 1094.03673517 1279.14187225 1152 1264 c 1
 976 768 l 1
 1152 144 l 1
 1094.03673517 128.858127746 1036.08310479 113.675466053 978 99 c 0
 908.562607991 81.4557228309 838.846354572 64.4950995387 768 54 c 0
 726.614442498 47.86918991 684.83718974 44.0275101078 643 44 c 0
 642.863057097 43.999909953 642.726110136 43.9998649121 642.589159181 43.9998649121 c 0
 552.095323139 43.9998649121 459.857171744 63.6657890577 384 113 c 0
 338.215629814 142.776166507 299.188946716 182.644590338 269.426631448 228.437965788 c 0
 239.66431618 274.231341238 219.060751679 325.596743357 205.422300628 378.48172514 c 0
 178.145398527 484.251688705 176 594.769443008 176 704 c 0
 176 813.230556992 178.145398527 923.748311295 205.422300628 1029.51827486 c 0
 219.060751679 1082.40325664 239.66431618 1133.76865876 269.426631448 1179.56203421 c 0
 299.188946716 1225.35540966 338.215629814 1265.22383349 384 1295 c 0
 459.857171744 1344.33421094 552.095323139 1364.00013509 642.589159181 1364.00013509 c 0
 684.62230979 1363.98631424 726.467613412 1360.15256119 768 1354 c 0
  Spiro
    643 1364 o
    768 1354 o
    978 1309 o
    1152 1264 v
    976 768 v
    1152 144 v
    978 99 o
    768 54 o
    643 44 o
    384 113 o
    176 704 o
    384 1295 o
    0 0 z
  EndSpiro
EndSplineSet
Layer: 3
Layer: 4
EndChar
StartChar: F
Encoding: 70 70 34
GlifName: F_
Width: 1024
VWidth: 0
Flags: W
HStem: 0 21G<256 384> 640 120<384 896> 1288 120<384 1024>
VStem: 256 128<0 640 760 1288>
LayerCount: 5
Back
Fore
SplineSet
256 1408 m 1
 1024 1408 l 1
 1024 1288 l 1
 384 1288 l 1
 384 760 l 1
 896 760 l 1
 896 640 l 1
 384 640 l 1
 384 0 l 1
 256 0 l 1
 256 1408 l 1
EndSplineSet
Layer: 2
Layer: 3
Layer: 4
EndChar
StartChar: P
Encoding: 80 80 43
GlifName: P_
Width: 1024
VWidth: 0
Flags: W
HStem: 0 21G<256 384> 520 120<384 755.459> 1288 120<384 755.459>
VStem: 256 128<0 520 640 1288> 912 128<795.125 1132.88>
AnchorPoint: "top" 576 1408 basechar 0
LayerCount: 5
Back
SplineSet
533 1288 m 6
 384 1288 l 5
 384 632 l 5
 533 632 l 4
 588.178710938 632 638.931818547 633.466063862 683.624023438 644.314453125 c 4
 728.389648438 655.180664062 770.598622801 675.923997307 804.678710938 705.268554688 c 4
 838.947265625 734.775390625 866.681316514 774.13001647 884.771484375 817.997070312 c 4
 902.953125 862.0859375 912 910.920898438 912 960 c 4
 912 1009.07910156 902.953143432 1057.91309354 884.771484375 1102.00292969 c 4
 866.681640625 1145.87011719 838.945712824 1185.22394018 804.678710938 1214.73144531 c 4
 770.599609375 1244.07714844 728.390348638 1264.81819737 683.625 1275.68457031 c 4
 638.928710938 1286.53417969 588.142485621 1288 533 1288 c 6
533 1408 m 6
 589.600776329 1408 651.75058098 1407.37727652 715.705078125 1391.85449219 c 4
 779.58984375 1376.34863281 840.619231109 1346.71983165 891.264648438 1303.11035156 c 4
 941.721679688 1259.66308594 979.625668898 1204.7698071 1004.16015625 1145.27539062 c 4
 1028.60351562 1086.00195312 1040 1022.72558594 1040 960 c 4
 1040 897.2734375 1028.60486916 833.998465254 1004.16015625 774.724609375 c 4
 979.625 715.231445312 941.721209061 660.336326504 891.264648438 616.889648438 c 4
 840.619140625 573.280273438 779.59064227 543.652100712 715.706054688 528.145507812 c 4
 651.748046875 512.62109375 589.627929688 512 533 512 c 4
 350 512 l 4
 311.260742188 512 286 546.248046875 286 572 c 4
 286 1348 l 4
 286 1384.31835938 322.53125 1408 350 1408 c 4
 533 1408 l 6
EndSplineSet
Fore
SplineSet
533 1408 m 2
 624 1408 772 1408 891 1303 c 0
 977 1227 1040 1111 1040 964 c 0
 1040 817 977 701 891 625 c 0
 772 520 624 520 533 520 c 2
 384 520 l 1
 384 0 l 1
 256 0 l 1
 256 1408 l 1
 533 1408 l 2
912 964 m 0
 912 1072 868 1161 805 1215 c 0
 721 1288 615 1288 533 1288 c 2
 384 1288 l 1
 384 640 l 1
 533 640 l 2
 615 640 721 640 805 713 c 0
 868 767 912 856 912 964 c 0
EndSplineSet
Layer: 2
SplineSet
572 1348 m 4
 800.55625 1348 960 1188.93515625 960 960 c 4
 960 731.06484375 800.55625 572 572 572 c 4
 343.44375 572 184 731.06484375 184 960 c 4
 184 1188.93515625 343.44375 1348 572 1348 c 4
  Spiro
    572 1348 o
    774.001 1298.38 o
    910.294 1162.17 o
    960 960 o
    910.294 757.831 o
    774.001 621.622 o
    572 572 o
    369.999 621.622 o
    233.706 757.831 o
    184 960 o
    233.706 1162.17 o
    369.999 1298.38 o
    0 0 z
  EndSpiro
EndSplineSet
Layer: 3
SplineSet
517 1346 m 6
 572.903082508 1346 629.339389258 1344.95592688 683.665039062 1331.76953125 c 4
 737.990419663 1318.58322843 789.609483907 1293.39804957 831.971679688 1256.92089844 c 4
 874.334404318 1220.44373949 907.15301671 1173.31971004 928.465820312 1121.63867188 c 4
 949.778212153 1069.95785236 960.000000002 1013.90288608 960 958 c 4
 960 902.097113922 949.778212151 846.04214764 928.465820312 794.361328125 c 4
 907.153016709 742.680289965 874.334404317 695.556260507 831.971679688 659.079101562 c 4
 789.609483907 622.60195043 737.990419663 597.416771568 683.665039062 584.23046875 c 4
 629.339389258 571.044073121 572.903082508 570.000000001 517 570 c 6
 128 570 l 5
 128 1346 l 5
 517 1346 l 6
  Spiro
    517 1346 ]
    960 958 o
    517 570 [
    128 570 v
    128 1346 v
    0 0 z
  EndSpiro
EndSplineSet
Layer: 4
EndChar
StartChar: Q
Encoding: 81 81 44
GlifName: Q_
Width: 1024
VWidth: 0
Flags: W
HStem: -272 120<740.976 1024> 1304 120<419.782 731.922>
VStem: 112 128<328.623 1080.68> 512 128<113.158 384> 912 128<329.987 1080.53>
CounterMasks: 1 38
LayerCount: 5
Back
SplineSet
112 704 m 4
 112 831 115 950 140 1053 c 4
 189 1253 331 1424 576 1424 c 4
 821 1424 962 1253 1012 1053 c 4
 1038 950 1040 831 1040 704 c 4
 1040 577 1037 458 1012 355 c 4
 969 181 856 29 667 -8 c 5
 668 -12 670 -17 672 -21 c 4
 708 -103 772 -152 871 -152 c 4
 928 -152 982 -147 1024 -143 c 5
 1024 -263 l 5
 980 -267 928 -272 864 -272 c 4
 702 -272 600 -177 552 -63 c 4
 545 -47 540 -31 535 -14 c 5
 315 4 188 167 140 355 c 4
 114 458 112 577 112 704 c 4
240 704 m 4
 240 588 242 478 265 382 c 4
 297 253 376 136 516 109 c 5
 512 156 512 205 512 256 c 6
 512 384 l 5
 640 384 l 5
 640 256 l 6
 640 206 640 157 644 111 c 5
 780 139 855 255 887 382 c 4
 911 478 912 588 912 704 c 4
 912 820 910 930 887 1026 c 4
 851 1173 756 1304 576 1304 c 4
 396 1304 299 1174 265 1026 c 4
 243 930 240 820 240 704 c 4
EndSplineSet
Fore
SplineSet
112 704 m 0
 112 831 115 950 140 1053 c 0
 189 1253 331 1424 576 1424 c 0
 821 1424 962 1253 1012 1053 c 0
 1038 950 1040 831 1040 704 c 0
 1040 577 1037 458 1012 355 c 0
 969 181 856 29 667 -8 c 1
 700 -98 769 -152 871 -152 c 0
 928 -152 982 -147 1024 -143 c 1
 1024 -263 l 1
 980 -267 928 -272 864 -272 c 0
 683 -272 576 -155 535 -14 c 1
 315 4 188 167 140 355 c 0
 114 458 112 577 112 704 c 0
240 704 m 0
 240 588 242 478 265 382 c 0
 297 253 376 136 516 109 c 1
 512 156 512 205 512 256 c 2
 512 384 l 1
 640 384 l 1
 640 256 l 2
 640 206 640 157 644 111 c 1
 780 139 855 255 887 382 c 0
 911 478 912 588 912 704 c 0
 912 820 910 930 887 1026 c 0
 851 1173 756 1304 576 1304 c 0
 396 1304 299 1174 265 1026 c 0
 243 930 240 820 240 704 c 0
EndSplineSet
Layer: 2
SplineSet
576 1424 m 0
 814 1424 964 1256 1012 1053 c 0
 1040 935 1040 816 1040 704 c 0
 1040 592 1040 473 1012 355 c 0
 969 171 842 16 641 -12 c 1
 643 -62 651 -129 684 -182 c 0
 721 -241 776 -280 872 -280 c 0
 920 -280 972 -272 1024 -263 c 1
 1024 -385 l 1
 973 -394 922 -400 872 -400 c 0
 724 -400 628 -333 573 -241 c 0
 525 -160 515 -74 513 -12 c 1
 312 15 184 171 140 355 c 0
 112 473 112 592 112 704 c 0
 112 816 112 935 140 1053 c 0
 188 1256 338 1424 576 1424 c 0
576 1304 m 0
 404 1304 301 1178 265 1026 c 0
 241 923 240 816 240 704 c 0
 240 592 241 485 265 382 c 0
 301 230 404 104 576 104 c 0
 748 104 851 230 887 382 c 0
 911 485 912 592 912 704 c 0
 912 816 911 923 887 1026 c 0
 851 1178 748 1304 576 1304 c 0
EndSplineSet
Layer: 3
Layer: 4
EndChar
StartChar: S
Encoding: 83 83 46
GlifName: S_
Width: 1024
VWidth: 0
Flags: W
HStem: -16 120<255.397 795.429> 1304 120<468.491 984.716>
VStem: 226 128<898.481 1188.92> 926 128<231.488 529.688>
AnchorPoint: "bottom" 704 0 basechar 0
AnchorPoint: "top" 576 1408 basechar 0
LayerCount: 5
Back
SplineSet
44.4365234375 85.8671875 m 5
 78.05859375 201.653320312 l 5
 139.811523438 185.892578125 l 4
 138.846679688 186.139648438 140.518554688 185.23046875 139.811523438 185.892578125 c 5
 204.51953125 169.377929688 269.67578125 154.642578125 335.185546875 141.712890625 c 4
 383.890625 132.099609375 432.4453125 123.388671875 480.896484375 116.278320312 c 4
 529.161132812 109.196289062 574.635742188 104.06640625 620.680664062 103.999023438 c 5
 668.098632812 103.999023438 712.771484375 109.985351562 753.087890625 124.455078125 c 4
 793.27734375 138.87890625 830.127929688 162.6640625 858.109375 193.717773438 c 4
 901.645507812 242.03515625 926.01953125 309.954101562 926.01953125 380.748046875 c 4
 926.01953125 434.797851562 911.724609375 488.500976562 884.506835938 531.883789062 c 4
 857.229492188 575.364257812 814.634765625 609.611328125 766.770507812 628.858398438 c 4
 721.87890625 646.911132812 667.586914062 654.15625 607.061523438 662.608398438 c 4
 545.788085938 671.1640625 476.91015625 683.08203125 412.120117188 717.97265625 c 4
 352.61328125 750.020507812 303.504882812 798.630859375 271.586914062 857.142578125 c 4
 240.220703125 914.64453125 225.997070312 978.669921875 225.997070312 1041.66503906 c 4
 225.997070312 1142.94238281 263.270507812 1246.22558594 340.262695312 1319.96972656 c 4
 377.821289062 1355.94335938 423.1171875 1383.046875 471.940429688 1400.1640625 c 4
 520.70703125 1417.26171875 571.07421875 1423.92871094 619.950195312 1424 c 5
 670.327148438 1424 715.341796875 1417.85644531 759.896484375 1409.95410156 c 4
 802.775390625 1402.34960938 844.704101562 1393.00292969 885.868164062 1383.12597656 c 4
 968.7265625 1363.24511719 1050.56933594 1340.52050781 1131.57421875 1316.125 c 4
 1192.50683594 1297.77441406 l 5
 1153.359375 1183.52441406 l 5
 1092.42578125 1201.875 l 4
 1013.28808594 1225.70800781 933.904296875 1247.73242188 854.131835938 1266.87304688 c 4
 814.418945312 1276.40234375 775.119140625 1285.12597656 736.103515625 1292.04492188 c 4
 695.672851562 1299.21679688 658.370117188 1304 620.049804688 1304 c 5
 583.703125 1303.94726562 548.43359375 1298.86621094 516.776367188 1287.76660156 c 4
 485.177734375 1276.68847656 455.723632812 1259.00585938 431.737304688 1236.03125 c 4
 382.620117188 1188.98535156 353.997070312 1115.99316406 353.997070312 1041.66503906 c 4
 353.997070312 995.615234375 364.701171875 949.999023438 385.549804688 911.780273438 c 4
 406.272460938 873.791992188 438.603515625 842.1015625 475.879882812 822.026367188 c 4
 516.78515625 799.997070312 568.297851562 789.344726562 625.918945312 781.298828125 c 4
 684.288085938 773.147460938 750.7421875 765.877929688 817.229492188 739.140625 c 4
 889.75 709.978515625 953.159179688 659.155273438 994.838867188 592.720703125 c 4
 1035.24804688 528.307617188 1054.01953125 453.983398438 1054.01953125 380.748046875 c 4
 1054.01953125 285.16796875 1021.96972656 189.6171875 955.890625 116.28125 c 4
 913.063476562 68.751953125 858.224609375 33.6962890625 798.8515625 12.38671875 c 4
 739.87890625 -8.7783203125 679.580078125 -16.0009765625 620.58203125 -16.0009765625 c 5
 564.080078125 -15.9189453125 512.260742188 -9.78515625 461.103515625 -2.2783203125 c 4
 409.779296875 5.25390625 359.044921875 14.3720703125 308.814453125 24.287109375 c 4
 240.865234375 37.6982421875 173.2890625 52.9814453125 106.188476562 70.1064453125 c 5
 106.188476562 69.1689453125 105.223632812 70.353515625 106.188476562 70.1064453125 c 4
 44.4365234375 85.8671875 l 5
EndSplineSet
Fore
SplineSet
620 -16 m 0
 486 -16 366 -2 250 16 c 1
 250 139 l 1
 364 121 492 104 620 104 c 0
 809 104 926 213 926 385 c 0
 926 483 878 567 800 613 c 0
 705 668 583 651 465 694 c 0
 324 745 226 867 226 1045 c 0
 226 1261 385 1424 620 1424 c 0
 756 1424 877 1411 990 1399 c 1
 990 1278 l 1
 878 1290 745 1304 620 1304 c 0
 455 1304 354 1191 354 1045 c 0
 354 936 406 858 482 819 c 0
 581 768 729 789 850 725 c 0
 972 661 1054 536 1054 385 c 0
 1054 147 879 -16 620 -16 c 0
EndSplineSet
Layer: 2
SplineSet
576 1364 m 0
 770.390625 1364 906 1234.61328125 906 1034 c 4
 906 842.827148438 770.390625 704 576 704 c 0
 381.609375 704 246 842.827148438 246 1034 c 0
 246 1234.61328125 381.609375 1364 576 1364 c 0
  Spiro
    576 1364 o
    747.805 1323.1 o
    863.724 1208.57 o
    906 1034 o
    863.724 863.625 o
    747.805 746.99 o
    576 704 o
    404.195 746.99 o
    288.276 863.625 o
    246 1034 o
    288.276 1208.57 o
    404.195 1323.1 o
    0 0 z
  EndSpiro
576 704 m 0
 793.953125 704 946 562.8125 946 374 c 4
 946 175.747070312 793.953125 44 576 44 c 0
 358.046875 44 206 175.747070312 206 374 c 0
 206 562.8125 358.046875 704 576 704 c 0
  Spiro
    576 704 o
    768.63 660.486 o
    898.6 543.326 o
    946 374 o
    898.6 200.479 o
    768.63 85.4188 o
    576 44 o
    383.37 85.4188 o
    253.4 200.479 o
    206 374 o
    253.4 543.326 o
    383.37 660.486 o
    0 0 z
  EndSpiro
EndSplineSet
Layer: 3
SplineSet
119 128 m 4
 184.904269994 111.18024036 251.270678437 96.1709817957 318 83 c 4
 367.467542194 73.2361348436 417.112368286 64.3208602971 467 57 c 4
 516.369842506 49.7551237159 566.10145967 44.0724868737 616 44 c 4
 616.302285852 43.9995608738 616.604585094 43.9993408882 616.906896992 43.9993408882 c 4
 669.49887712 43.9993408882 722.473885493 50.6570190234 771.970171345 68.4211210116 c 4
 821.750974267 86.2873355155 867.595597611 115.708038332 903 155 c 4
 957.807926253 215.826077891 986.019112705 297.56119565 986.019112705 380.748041824 c 4
 986.019112705 444.39059731 969.486530117 508.404176843 935.672596142 562.302648486 c 4
 901.194781272 617.25932784 848.191915135 659.794841952 788 684 c 4
 732.310120284 706.394740841 671.937043957 713.651826484 612.48984382 721.953483908 c 4
 553.042643683 730.255141332 492.847644309 741.539261936 440 770 c 4
 391.608876844 796.06070902 350.889057216 836.211771491 324.568386313 884.461990539 c 4
 298.460800854 932.321588108 285.997509904 987.142675762 285.997509904 1041.66505784 c 4
 285.997509904 1129.46733644 318.945729442 1217.6052298 382 1278 c 4
 412.772778095 1307.47484516 450.147291975 1329.86784745 490.358882056 1343.96601727 c 4
 530.570472137 1358.06418709 573.388657033 1363.93819735 616 1364 c 4
 616.714448305 1364.00051781 l 4
 659.416881673 1364.00051781 701.951866126 1358.45752993 744 1351 c 4
 784.946897419 1343.73778204 825.561861064 1334.70284171 866 1325 c 4
 947.315630362 1305.48889709 1027.92865062 1283.11418434 1108 1259 c 1028
  Spiro
    119 128 {
    318 83 o
    467 57 o
    616 44 o
    903 155 o
    986 377 o
    788 684 o
    440 770 o
    286 1043 o
    382 1278 o
    616 1364 o
    744 1351 o
    866 1325 o
    1108 1259 o
    0 0 z
  EndSpiro
EndSplineSet
Layer: 4
EndChar
StartChar: b
Encoding: 98 98 0
GlifName: b
Width: 1024
VWidth: 0
InSpiro: 1
Flags: W
HStem: -16 120<486.825 701.792> 0 21G<256 384> 920 120<486.825 701.792> 1388 20G<256 384>
VStem: 256 128<0 125 219.664 804.336 899 1408> 800 128<220.345 803.655>
LayerCount: 5
Back
Fore
SplineSet
612 1040 m 0x7c
 743 1040 853 953 900 803 c 0
 928 713 928 624 928 512 c 0
 928 400 928 311 900 221 c 0
 853 71 743 -16 612 -16 c 0xbc
 529 -16 453 33 394 125 c 1
 384 125 l 1
 384 0 l 1
 256 0 l 1
 256 1408 l 1
 384 1408 l 1
 384 899 l 1
 394 899 l 1
 453 991 529 1040 612 1040 c 0x7c
  Spiro
    612 1040 o
    734.332 1011.94 o
    833.64 931.006 o
    900 803 o
    919.691 712.536 o
    926.966 617.123 o
    928 512 o
    926.966 406.877 o
    919.691 311.464 o
    900 221 o
    833.64 92.9942 o
    734.332 12.0558 o
    612 -16 o
    531.781 0.0791268 o
    458.227 47.6182 o
    394 125 v
    384 125 v
    384 0 v
    256 0 v
    256 1408 v
    384 1408 v
    384 899 v
    394 899 v
    458.227 976.382 o
    531.781 1023.92 o
    0 0 z
  EndSpiro
592 920 m 0
 496 920 436 847 410 768 c 0
 385 692 384 604 384 512 c 0
 384 420 385 332 410 256 c 0
 436 177 496 104 592 104 c 0
 688 104 748 177 774 256 c 0
 799 332 800 420 800 512 c 0
 800 604 799 692 774 768 c 0
 748 847 688 920 592 920 c 0
  Spiro
    592 920 o
    507.998 898.189 o
    447.359 842.451 o
    410 768 o
    392.16 688.379 o
    385.182 602.282 o
    384 512 o
    385.182 421.718 o
    392.16 335.621 o
    410 256 o
    447.359 181.549 o
    507.998 125.811 o
    592 104 o
    676.002 125.811 o
    736.641 181.549 o
    774 256 o
    791.84 335.621 o
    798.818 421.718 o
    800 512 o
    798.818 602.282 o
    791.84 688.379 o
    774 768 o
    736.641 842.451 o
    676.002 898.189 o
    0 0 z
  EndSpiro
EndSplineSet
Layer: 2
SplineSet
592 980 m 4
 752.224698154 980 864 868.490323154 864 708 c 4
 864 547.509676846 752.224698154 436 592 436 c 4
 431.775301846 436 320 547.509676846 320 708 c 4
 320 868.490323154 431.775301846 980 592 980 c 4
EndSplineSet
Layer: 3
SplineSet
592 980 m 0
 572.478833777 980 552.952344892 977.678092966 534 973 c 0
 489.369481781 961.983647431 448.395288022 937.335718108 416.847957469 903.899074804 c 0
 385.300626916 870.4624315 363.153388665 828.887148763 348.912402211 785.178597136 c 0
 320.430429304 697.761493884 320 603.940049607 320 512 c 0
 320 420.059950393 320.430429303 326.238506116 348.91240221 238.821402863 c 0
 363.153388664 195.112851237 385.300626915 153.537568499 416.847957468 120.100925196 c 0
 448.395288021 86.6642818917 489.369481781 62.0163525689 534 51 c 0
 552.952344892 46.3219070343 572.478833777 44 592 44 c 0
 611.521166223 44 631.047655108 46.3219070343 650 51 c 0
 694.630518219 62.0163525691 735.604711978 86.664281892 767.152042531 120.100925196 c 0
 798.699373084 153.5375685 820.846611335 195.112851237 835.087597789 238.821402864 c 0
 863.569570696 326.238506116 864 420.059950393 864 512 c 0
 864 603.940049607 863.569570697 697.761493884 835.08759779 785.178597137 c 0
 820.846611336 828.887148763 798.699373085 870.462431501 767.152042532 903.899074804 c 0
 735.604711979 937.335718108 694.630518219 961.983647431 650 973 c 0
 631.047655108 977.678092966 611.521166223 980 592 980 c 0
  Spiro
    592 980 o
    534 973 o
    320 512 o
    534 51 o
    592 44 o
    650 51 o
    864 512 o
    650 973 o
    0 0 z
  EndSpiro
320 1536 m 1
 320 4 l 1025
  Spiro
    320 1536 {
    320 4 v
    0 0 z
  EndSpiro
EndSplineSet
Layer: 4
EndChar
StartChar: j
Encoding: 106 106 10
GlifName: j
Width: 1024
VWidth: 0
Flags: W
HStem: -272 120<174.991 544.103> 904 120<384 640> 1200 224<582.609 761.391>
VStem: 560 224<1222.61 1401.39> 640 128<-50.2326 904>
LayerCount: 5
Back
Fore
SplineSet
640 160 m 6xe8
 640 904 l 5
 384 904 l 5
 384 1024 l 5
 768 1024 l 5
 768 160 l 6
 768 100 768 -11 707 -113 c 4
 652 -205 556 -272 408 -272 c 4
 318 -272 236 -265 172 -257 c 5
 172 -137 l 5
 235 -144 319 -152 408 -152 c 4
 504 -152 559 -113 596 -54 c 4
 640 17 640 113 640 160 c 6xe8
672 1424 m 4
 738 1424 784 1378 784 1312 c 4
 784 1246 738 1200 672 1200 c 4
 606 1200 560 1246 560 1312 c 4xf0
 560 1378 606 1424 672 1424 c 4
EndSplineSet
Layer: 2
SplineSet
256 -137 m 5xe8
 311 -145 380 -152 448 -152 c 0
 515 -152 565 -128 597 -90 c 0
 640 -38 640 26 640 114 c 2
 640 904 l 1
 384 904 l 1
 384 1024 l 1
 768 1024 l 1
 768 104 l 2
 768 13 768 -82 700 -164 c 0
 648 -227 564 -272 458 -272 c 0
 383 -272 316 -266 256 -257 c 5
 256 -137 l 5xe8
672 1424 m 0
 738 1424 784 1378 784 1312 c 0
 784 1246 738 1200 672 1200 c 0
 606 1200 560 1246 560 1312 c 0xf0
 560 1378 606 1424 672 1424 c 0
EndSplineSet
Layer: 3
SplineSet
704 45 m 1
 704 -172 l 2
 704 -209.30175595 703.454831685 -246.92394934 695.223254122 -283.306117057 c 0
 686.99167656 -319.688284774 671.043396481 -354.533371494 647.203993415 -383.22315815 c 0
 623.364590348 -411.912944806 592.00622287 -434.113648541 557.420372628 -448.086477886 c 0
 522.739235077 -462.097803707 485.192168037 -467.986486026 447.729768683 -468.00009819 c 0
 405.278768715 -468.00009819 363.072771044 -460.733301726 322 -450 c 0
 286.585548448 -440.745353082 251.873601214 -428.871229546 218 -415 c 0
 185.834505443 -401.828239618 154.435909116 -386.785998568 124 -370 c 1
 704 45 l 1
  Spiro
    704 45 v
    704 -172 ]
    448 -468 o
    322 -450 o
    218 -415 o
    124 -370 v
    0 0 z
  EndSpiro
EndSplineSet
Layer: 4
Substitution2: "'ss11' Style Set 11 lookup 62 subtable" j.long
Substitution2: "'ss07' Style Set 7 lookup 58 subtable" j.flyingdot
EndChar
StartChar: l
Encoding: 108 108 12
GlifName: l
Width: 1024
VWidth: 0
Flags: W
HStem: -16 120<670.604 896> 1388 20G<512 640>
VStem: 512 128<149.787 1408>
AnchorPoint: "bottom" 704 0 basechar 0
AnchorPoint: "top" 576 1408 basechar 0
LayerCount: 5
Back
Fore
SplineSet
896 -11 m 1
 858 -13 813 -16 758 -16 c 0
 686 -16 627 9 585 52 c 0
 512 128 512 218 512 279 c 2
 512 1408 l 1
 640 1408 l 1
 640 279 l 2
 640 232 640 186 668 148 c 0
 688 121 719 104 768 104 c 0
 810 104 860 106 896 109 c 1
 896 -11 l 1
EndSplineSet
Layer: 2
SplineSet
768 428 m 4
 881.1 428 960 349.2875 960 236 c 4
 960 122.7125 881.1 44 768 44 c 4
 654.9 44 576 122.7125 576 236 c 4
 576 349.2875 654.9 428 768 428 c 4
EndSplineSet
Layer: 3
SplineSet
576 512 m 5
 576 279 l 6
 576 250.02413576 576.250650297 220.853241002 581.789087314 192.411609125 c 4
 587.327524331 163.969977248 598.283075623 136.355475608 615.640005835 113.153370488 c 4
 632.996936048 89.951265367 656.590856162 71.5221891235 683.18843629 60.0256922758 c 4
 709.71792297 48.5586280343 738.874455326 43.9999099414 767.777448423 43.9999099414 c 4
 788.632381203 43.9999099414 809.364733367 46.1707165575 830 49 c 4
 852.099251962 52.0300091964 874.096652468 55.7808460698 896 60 c 4
 917.445865932 64.1310310856 938.789835328 68.7923615755 960 74 c 1028
  Spiro
    576 512 {
    576 279 ]
    768 44 o
    830 49 o
    896 60 o
    960 74 o
    0 0 z
  EndSpiro
EndSplineSet
Layer: 4
Substitution2: "'ss09' Style Set 9 lookup 60 subtable" l.base
Substitution2: "'ss08' Style Set 8 lookup 59 subtable" l.zstyle
EndChar
StartChar: bar
Encoding: 124 124 92
GlifName: bar
Width: 1024
VWidth: 0
Flags: W
VStem: 512 128<-256 1536>
LayerCount: 5
Back
Fore
SplineSet
640 1536 m 5
 640 -256 l 5
 512 -256 l 5
 512 1536 l 5
 640 1536 l 5
EndSplineSet
Layer: 2
Layer: 3
Layer: 4
Substitution2: "Single Substitution lookup 50 subtable" bar2
Substitution2: "Single Substitution lookup 49 subtable" bar1
EndChar
StartChar: currency
Encoding: 164 164 531
GlifName: currency
Width: 1024
VWidth: 0
Flags: W
HStem: 244 120<443.947 708.053> 788 120<443.947 708.053>
VStem: 240 128<439.59 712.41> 784 128<439.59 712.41>
LayerCount: 5
Back
Fore
SplineSet
576 788 m 4
 453 788 368 708 368 576 c 4
 368 444 453 364 576 364 c 4
 699 364 784 444 784 576 c 4
 784 708 699 788 576 788 c 4
156 908 m 5
 244 996 l 5
 385 854 l 5
 438 888 503 908 576 908 c 4
 649 908 714 888 767 854 c 5
 908 996 l 5
 996 908 l 5
 855 768 l 5
 891 715 912 648 912 576 c 4
 912 504 891 437 855 384 c 5
 996 244 l 5
 908 156 l 5
 767 298 l 5
 714 264 649 244 576 244 c 4
 503 244 438 264 385 298 c 5
 244 156 l 5
 156 244 l 5
 297 384 l 5
 261 437 240 504 240 576 c 4
 240 648 261 715 297 768 c 5
 156 908 l 5
EndSplineSet
Layer: 2
Layer: 3
Layer: 4
EndChar
StartChar: acute
Encoding: 180 180 310
GlifName: acute
Width: 1024
VWidth: 0
Flags: W
HStem: 1024 384
VStem: 489 304
LayerCount: 5
Back
Fore
SplineSet
489 1024 m 1
 655 1408 l 1
 793 1408 l 1
 627 1024 l 1
 489 1024 l 1
EndSplineSet
Layer: 2
Layer: 3
Layer: 4
EndChar
StartChar: multiply
Encoding: 215 215 122
GlifName: multiply
Width: 1024
VWidth: 0
Flags: W
LayerCount: 5
Back
Fore
SplineSet
725 512 m 5
 1000 240 l 5
 906 158 l 5
 640 427 l 5
 581 512 l 5
 571 512 l 5
 512 427 l 5
 246 158 l 5
 152 240 l 5
 427 512 l 5
 512 571 l 5
 512 581 l 5
 427 640 l 5
 152 912 l 5
 246 994 l 5
 512 725 l 5
 571 640 l 5
 581 640 l 5
 640 725 l 5
 906 994 l 5
 1000 912 l 5
 725 640 l 5
 640 581 l 5
 640 571 l 5
 725 512 l 5
EndSplineSet
Layer: 2
Layer: 3
Layer: 4
EndChar
StartChar: Oslash
Encoding: 216 216 123
GlifName: O_slash
Width: 1024
VWidth: 0
Flags: W
HStem: -16 120<421.622 728.829> 1304 120<423.171 730.378>
VStem: 112 128<324.028 1081.44> 912 128<326.556 1083.97>
LayerCount: 5
Back
Fore
SplineSet
344 215 m 1
 398 148 475 104 576 104 c 0
 748 104 851 230 887 382 c 0
 911 485 912 592 912 704 c 0
 912 841 909 987 866 1094 c 1
 344 215 l 1
201 -26 m 1
 115 26 l 1
 210 186 l 1
 178 237 154 294 140 355 c 0
 112 473 112 592 112 704 c 0
 112 816 112 935 140 1053 c 0
 188 1256 338 1424 576 1424 c 0
 700 1424 801 1378 875 1305 c 1
 951 1434 l 1
 1037 1382 l 1
 942 1222 l 1
 974 1171 998 1114 1012 1053 c 0
 1040 935 1040 816 1040 704 c 0
 1040 592 1040 473 1012 355 c 0
 964 152 814 -16 576 -16 c 0
 452 -16 351 30 277 103 c 1
 201 -26 l 1
576 1304 m 0
 404 1304 301 1178 265 1026 c 0
 241 923 240 816 240 704 c 0
 240 567 243 421 286 314 c 1
 808 1193 l 1
 754 1260 677 1304 576 1304 c 0
EndSplineSet
Layer: 2
Layer: 3
Layer: 4
EndChar
StartChar: Aogonek
Encoding: 260 260 165
GlifName: A_ogonek
Width: 1024
VWidth: 0
Flags: W
HStem: -350 120<907.763 1043> 0 21G<103 243.5> 388 120<314 838> 1279 129<554.967 597.033>
VStem: 103 135<0 299.508> 780 121<-222.015 -76.6042>
LayerCount: 5
Back
Fore
SplineSet
979 -230 m 4
 1002 -230 1023 -229 1043 -225 c 5
 1043 -345 l 5
 1017 -349 989 -350 959 -350 c 4
 879 -350 780 -287 780 -185 c 4
 780 -97 850 -39 914 0 c 5
 903 136 883 265 859 388 c 5
 293 388 l 5
 274 265 249 136 238 0 c 5
 103 0 l 5
 156 496 267 971 511 1408 c 5
 641 1408 l 5
 885 971 996 496 1049 0 c 5
 947 -48 901 -90 901 -158 c 4
 901 -211 944 -230 979 -230 c 4
838 508 m 5
 770 796 697 1054 581 1279 c 5
 571 1279 l 5
 455 1054 382 796 314 508 c 5
 838 508 l 5
EndSplineSet
Layer: 2
Layer: 3
Layer: 4
EndChar
StartChar: dcroat
Encoding: 273 273 182
GlifName: dcroat
Width: 1024
VWidth: 0
Flags: W
HStem: -16 120<442.733 665.245> 0 21G<768 896> 792 120<442.733 665.245> 1156 120<384 768 896 1024> 1388 20G<768 896>
VStem: 224 128<209.189 686.811> 768 128<0 125 207.449 688.551 771 1156 1276 1408>
LayerCount: 5
Back
Fore
SplineSet
768 0 m 5x7e
 768 125 l 5
 758 125 l 5
 703 40 627 -16 540 -16 c 4xbe
 459 -16 389 16 339 65 c 4
 255 148 224 275 224 448 c 4
 224 621 255 748 339 831 c 4
 389 880 459 912 540 912 c 4
 627 912 703 856 758 771 c 5
 768 771 l 5
 768 1156 l 5
 384 1156 l 5
 384 1276 l 5
 768 1276 l 5
 768 1408 l 5
 896 1408 l 5
 896 1276 l 5
 1024 1276 l 5
 1024 1156 l 5
 896 1156 l 5
 896 0 l 5
 768 0 l 5x7e
352 448 m 4
 352 315 371 211 437 150 c 4
 468 121 510 104 560 104 c 4
 610 104 652 121 683 150 c 4
 749 211 768 315 768 448 c 4
 768 581 749 685 683 746 c 4
 652 775 610 792 560 792 c 4
 510 792 468 775 437 746 c 4
 371 685 352 581 352 448 c 4
EndSplineSet
Layer: 2
Layer: 3
Layer: 4
EndChar
StartChar: hbar
Encoding: 295 295 223
GlifName: hbar
Width: 1024
VWidth: 0
Flags: W
HStem: 0 21G<256 384 768 896> 792 120<474.999 700.525> 1156 120<128 256 384 768> 1388 20G<256 384>
VStem: 256 128<0 725.095 784 1156 1276 1408> 768 128<0 725.095>
LayerCount: 5
Back
Fore
SplineSet
596 912 m 0
 696 912 777 867 827 805 c 0
 896 719 896 623 896 529 c 2
 896 0 l 1
 768 0 l 1
 768 529 l 2
 768 616 768 678 723 730 c 0
 691 767 640 792 576 792 c 0
 512 792 461 767 429 730 c 0
 384 678 384 616 384 529 c 2
 384 0 l 1
 256 0 l 1
 256 1156 l 1
 128 1156 l 1
 128 1276 l 1
 256 1276 l 1
 256 1408 l 1
 384 1408 l 1
 384 1276 l 1
 768 1276 l 1
 768 1156 l 1
 384 1156 l 1
 384 784 l 1
 394 784 l 1
 443 861 520 912 596 912 c 0
EndSplineSet
Layer: 2
Layer: 3
Layer: 4
EndChar
StartChar: Scedilla
Encoding: 350 350 265
GlifName: S_cedilla
Width: 1024
VWidth: 0
Flags: W
HStem: -273 120<386.225 608.744> -16 120<255.44 637.506> 1304 120<468.491 984.716>
VStem: 226 128<898.481 1188.92> 640 128<-106.731 -16> 926 128<231.051 529.688>
LayerCount: 5
Back
SplineSet
576 -16 m 4
 452 -16 322 -2 206 16 c 5
 206 139 l 5
 320 121 458 104 576 104 c 4
 755 104 882 209 882 385 c 4
 882 508 813 597 724 632 c 4
 610 678 500 650 367 721 c 4
 260 778 182 895 182 1045 c 4
 182 1266 341 1424 576 1424 c 4
 702 1424 833 1407 946 1389 c 5
 946 1265 l 5
 834 1285 691 1304 576 1304 c 4
 411 1304 310 1198 310 1045 c 4
 310 942 361 863 433 825 c 4
 531 773 656 788 772 742 c 4
 901 691 1010 566 1010 385 c 4
 1010 143 825 -16 576 -16 c 4
EndSplineSet
Fore
SplineSet
620 -16 m 4
 486 -16 366 -2 250 16 c 5
 250 139 l 5
 364 121 492 104 620 104 c 4
 809 104 926 213 926 385 c 4
 926 483 878 567 800 613 c 4
 705 668 583 651 465 694 c 4
 324 745 226 867 226 1045 c 4
 226 1261 385 1424 620 1424 c 4
 756 1424 877 1411 990 1399 c 5
 990 1278 l 5
 878 1290 745 1304 620 1304 c 4
 455 1304 354 1191 354 1045 c 4
 354 936 406 858 482 819 c 4
 581 768 729 789 850 725 c 4
 972 661 1054 536 1054 385 c 4
 1054 196 943 54 768 4 c 5
 768 -52 763 -115 716 -178 c 4
 674 -235 602 -273 512 -273 c 4
 477 -273 431 -266 384 -256 c 5
 384 -133 l 5
 432 -144 478 -153 512 -153 c 4
 559 -153 591 -136 612 -108 c 4
 633 -81 639 -50 640 -16 c 5
 634 -16 627 -16 620 -16 c 4
EndSplineSet
Layer: 2
Layer: 3
Layer: 4
EndChar
StartChar: uni0162
Encoding: 354 354 269
GlifName: uni0162
Width: 1024
VWidth: 0
Flags: W
HStem: -272 120<256 480.744> 1288 120<128 512 640 1024>
VStem: 512 128<-105.261 1288>
LayerCount: 5
Back
Fore
SplineSet
640 23 m 2
 640 -37 640 -107 588 -177 c 0
 546 -234 474 -272 384 -272 c 0
 349 -272 303 -269 256 -265 c 1
 256 -145 l 5
 304 -149 350 -152 384 -152 c 0
 431 -152 463 -135 484 -107 c 0
 512 -70 512 -27 512 23 c 2
 512 1288 l 1
 128 1288 l 1
 128 1408 l 1
 1024 1408 l 1
 1024 1288 l 1
 640 1288 l 1
 640 23 l 2
EndSplineSet
Layer: 2
Layer: 3
Layer: 4
EndChar
StartChar: Tbar
Encoding: 358 358 288
GlifName: T_bar
Width: 1024
VWidth: 0
Flags: W
HStem: 0 21G<512 640> 644 120<256 512 640 896> 1288 120<128 512 640 1024>
VStem: 512 128<0 644 764 1288>
LayerCount: 5
Back
Fore
SplineSet
1024 1408 m 1
 1024 1288 l 1
 640 1288 l 1
 640 764 l 1
 896 764 l 1
 896 644 l 1
 640 644 l 1
 640 0 l 1
 512 0 l 1
 512 644 l 1
 256 644 l 1
 256 764 l 1
 512 764 l 1
 512 1288 l 1
 128 1288 l 1
 128 1408 l 1
 1024 1408 l 1
EndSplineSet
Layer: 2
Layer: 3
Layer: 4
EndChar
StartChar: uni0189
Encoding: 393 393 647
GlifName: uni0189
Width: 1024
VWidth: 0
Flags: W
HStem: 0 120<384 692.421> 644 120<128 256 384 640> 1288 120<384 689.484>
VStem: 256 128<120 644 764 1288> 912 128<358.391 1030.74>
CounterMasks: 1 e0
LayerCount: 5
Back
Fore
SplineSet
504 120 m 2
 665 120 764 189 829 278 c 1
 900 384 912 525 912 704 c 0
 912 800 908 893 886 982 c 0
 844 1155 725 1288 504 1288 c 0
 451 1288 431 1288 384 1288 c 1
 384 764 l 1
 640 764 l 1
 640 644 l 1
 384 644 l 1
 384 120 l 1
 504 120 l 2
504 1408 m 2
 608 1408 716 1378 807 1317 c 0
 910 1247 977 1137 1011 1008 c 0
 1038 905 1040 803 1040 704 c 0
 1040 605 1037 503 1011 400 c 0
 978 271 908 163 807 91 c 0
 718 27 609 0 504 0 c 0
 425 0 353 0 256 0 c 1
 256 644 l 1
 128 644 l 1
 128 764 l 1
 256 764 l 1
 256 1408 l 1
 504 1408 l 2
EndSplineSet
Layer: 2
Layer: 3
Layer: 4
EndChar
StartChar: uni018F
Encoding: 399 399 608
GlifName: uni018F_
Width: 1024
VWidth: 0
Flags: W
HStem: -16 120<420.015 731.985> 648 120<240 912> 1304 120<182.461 688.864>
VStem: 112 128<327.85 648> 912 128<327.85 648 768 1054.4>
LayerCount: 5
Back
Fore
SplineSet
240 648 m 1
 241 553 247 462 265 382 c 0
 301 235 396 104 576 104 c 0
 756 104 851 235 887 382 c 0
 905 462 911 553 912 648 c 1
 240 648 l 1
912 768 m 1
 910 854 904 938 884 1016 c 0
 839 1189 709 1304 479 1304 c 0
 383 1304 275 1295 178 1282 c 1
 178 1402 l 1
 271 1415 374 1424 479 1424 c 0
 773 1424 952 1267 1009 1044 c 0
 1038 930 1040 814 1040 704 c 0
 1040 577 1038 458 1012 355 c 0
 963 155 821 -16 576 -16 c 0
 331 -16 189 155 140 355 c 0
 114 458 112 591 112 768 c 1
 912 768 l 1
EndSplineSet
Layer: 2
Layer: 3
Layer: 4
EndChar
StartChar: uni020F
Encoding: 527 527 453
GlifName: uni020F_
Width: 1024
VWidth: 0
Flags: W
HStem: -16 120<449.014 702.986> 920 120<449.014 702.986> 1304 120<420.418 731.582>
VStem: 224 128<213.2 810.8 1152 1232.75> 800 128<213.2 810.8 1152 1232.75>
LayerCount: 5
Back
Fore
SplineSet
788 1152 m 1
 788 1238 719 1304 576 1304 c 0
 433 1304 364 1238 364 1152 c 1
 236 1152 l 1
 236 1320 388 1424 576 1424 c 0
 764 1424 916 1320 916 1152 c 1
 788 1152 l 1
576 920 m 0
 480 920 416 868 384 789 c 0
 354 714 352 614 352 512 c 0
 352 410 354 310 384 235 c 0
 416 156 480 104 576 104 c 0
 672 104 736 156 768 235 c 0
 798 310 800 410 800 512 c 0
 800 614 798 714 768 789 c 0
 736 868 672 920 576 920 c 0
576 1040 m 0
 736 1040 842 945 888 829 c 0
 926 734 928 633 928 512 c 0
 928 391 926 290 888 195 c 0
 842 79 736 -16 576 -16 c 0
 416 -16 310 79 264 195 c 0
 226 290 224 391 224 512 c 0
 224 633 226 734 264 829 c 0
 310 945 416 1040 576 1040 c 0
EndSplineSet
Layer: 2
Layer: 3
Layer: 4
EndChar
StartChar: uni0237
Encoding: 567 567 292
GlifName: uni0237
Width: 1024
VWidth: 0
Flags: W
HStem: -272 120<174.991 544.103> 904 120<384 640>
VStem: 640 128<-50.2326 904>
AnchorPoint: "top" 704 1024 basechar 0
LayerCount: 5
Back
Fore
SplineSet
640 160 m 2
 640 904 l 1
 384 904 l 1
 384 1024 l 1
 768 1024 l 1
 768 160 l 2
 768 100 768 -11 707 -113 c 0
 652 -205 556 -272 408 -272 c 0
 318 -272 236 -265 172 -257 c 1
 172 -137 l 1
 235 -144 319 -152 408 -152 c 0
 504 -152 559 -113 596 -54 c 0
 640 17 640 113 640 160 c 2
EndSplineSet
Layer: 2
Layer: 3
Layer: 4
EndChar
StartChar: uni025C
Encoding: 604 604 524
GlifName: uni025C_
Width: 1024
VWidth: 0
Flags: W
HStem: -16 120<256 718.486> 512 120<384 717.059> 920 120<280.521 727.338>
VStem: 800 128<183.742 431.902 697.898 851.179>
LayerCount: 5
Back
Fore
SplineSet
775 563 m 5
 888 508 928 417 928 308 c 4
 928 116 775 -16 566 -16 c 4
 456 -16 360 -12 256 -6 c 5
 256 114 l 5
 363 108 468 104 566 104 c 4
 704 104 800 181 800 308 c 4
 800 410 734 483 645 503 c 4
 609 511 568 512 522 512 c 6
 384 512 l 5
 384 632 l 5
 430 632 477 632 523 632 c 4
 572 632 610 632 656 641 c 4
 724 654 790 703 790 777 c 4
 790 848 717 920 567 920 c 4
 468 920 373 912 276 904 c 5
 276 1024 l 5
 372 1033 463 1040 567 1040 c 4
 779 1040 918 922 918 777 c 4
 918 680 869 612 775 573 c 5
 775 563 l 5
EndSplineSet
Layer: 2
Layer: 3
Layer: 4
EndChar
StartChar: Pi
Encoding: 928 928 474
GlifName: P_i
Width: 1024
VWidth: 0
Flags: W
HStem: 0 21G<128 256 896 1024> 1288 120<256 896>
VStem: 128 128<0 1288> 896 128<0 1288>
LayerCount: 5
Back
Fore
SplineSet
128 1408 m 1
 1024 1408 l 1
 1024 0 l 1
 896 0 l 1
 896 1288 l 1
 256 1288 l 1
 256 0 l 1
 128 0 l 1
 128 1408 l 1
EndSplineSet
Layer: 2
Layer: 3
Layer: 4
EndChar
StartChar: alpha
Encoding: 945 945 518
GlifName: alpha
Width: 1024
VWidth: 0
Flags: W
HStem: -16 120<450.208 671.958 924.946 1024> 920 120<450.208 665.175> 1004 20G<768 896>
VStem: 224 128<220.345 803.655> 768 128<219.664 804.336 899 1024>
AnchorPoint: "bottom" 704 0 basechar 0
AnchorPoint: "top" 576 1024 basechar 0
LayerCount: 5
Back
Fore
SplineSet
775 118 m 5xb8
 707.4375 23 637.916666667 -16 540 -16 c 4
 409 -16 299 71 252 221 c 4
 224 311 224 400 224 512 c 4
 224 624 224 713 252 803 c 4
 299 953 409 1040 540 1040 c 4xd8
 623 1040 699 991 758 899 c 5
 768 899 l 5
 768 1024 l 5
 896 1024 l 5
 896 208 l 6
 896 180 896 153 924 130 c 4
 944 114 975 103 1024 103 c 5
 1024 -16 l 5
 938 -16 884 2 841 36 c 4
 809.029688651 61.2788508343 792.68627451 89 785 118 c 5
 775 118 l 5xb8
560 920 m 4
 464 920 404 847 378 768 c 4
 353 692 352 604 352 512 c 4
 352 420 353 332 378 256 c 4
 404 177 464 104 560 104 c 4
 656 104 716 177 742 256 c 4
 767 332 768 420 768 512 c 4
 768 604 767 692 742 768 c 4
 716 847 656 920 560 920 c 4
EndSplineSet
Layer: 2
Layer: 3
Layer: 4
EndChar
StartChar: iota
Encoding: 953 953 512
GlifName: iota
Width: 1024
VWidth: 0
Flags: W
HStem: -16 120<670.604 894.258> 1004 20G<512 640>
VStem: 512 128<149.787 1024>
AnchorPoint: "top" 576 1024 basechar 0
LayerCount: 5
Back
Fore
SplineSet
896 -2 m 1
 858 -9 813 -16 758 -16 c 0
 686 -16 627 9 585 52 c 0
 512 128 512 218 512 279 c 2
 512 1024 l 1
 640 1024 l 1
 640 279 l 2
 640 232 640 186 668 148 c 0
 688 121 719 104 768 104 c 0
 810 104 860 111 896 119 c 1
 896 -2 l 1
EndSplineSet
Layer: 2
Layer: 3
Layer: 4
EndChar
StartChar: rho
Encoding: 961 961 536
GlifName: rho
Width: 1024
VWidth: 0
Flags: W
HStem: -16 120<465.206 711.981> 920 120<467.732 714.051>
VStem: 256 128<-384 91 166.056 828.275> 800 128<203.478 822.184>
LayerCount: 5
Back
Fore
SplineSet
596 920 m 0
 502 920 432 871 409 789 c 0
 385 714 384 614 384 512 c 0
 384 414 384 318 384 245 c 0
 399 154 490 104 596 104 c 0
 684 104 744 155 772 235 c 0
 798 310 800 410 800 512 c 0
 800 614 798 714 773 789 c 0
 746 869 684 920 596 920 c 0
596 1040 m 0
 748 1040 852 946 893 829 c 0
 926 734 928 633 928 512 c 0
 928 391 928 290 896 195 c 0
 857 78 760 -16 616 -16 c 0
 504 -16 453 25 394 91 c 1
 384 91 l 1
 384 -384 l 1
 256 -384 l 1
 256 512 l 2
 256 633 258 734 289 829 c 0
 327 948 438 1040 596 1040 c 0
EndSplineSet
Layer: 2
Layer: 3
Layer: 4
EndChar
StartChar: uni0406
Encoding: 1030 1030 387
GlifName: uni0406
Width: 1024
VWidth: 0
Flags: W
HStem: 0 120<256 512 640 896> 1288 120<256 512 640 896>
VStem: 512 128<120 1288>
AnchorPoint: "top" 576 1408 basechar 0
AnchorPoint: "bottom" 576 0 basechar 0
LayerCount: 5
Back
Fore
SplineSet
896 1408 m 5
 896 1288 l 5
 640 1288 l 5
 640 120 l 5
 896 120 l 5
 896 0 l 5
 256 0 l 5
 256 120 l 5
 512 120 l 5
 512 1288 l 5
 256 1288 l 5
 256 1408 l 5
 896 1408 l 5
EndSplineSet
Layer: 2
Layer: 3
Layer: 4
EndChar
StartChar: uni0417
Encoding: 1047 1047 326
GlifName: uni0417
Width: 1024
VWidth: 0
Flags: W
HStem: -16 120<154.34 686.193> 644 120<256 670.873> 1304 120<158.909 674.929>
VStem: 780 128<873.649 1201.11> 800 128<212.809 525.939>
CounterMasks: 1 e0
LayerCount: 5
Back
SplineSet
307 1341 m 0
 234.178621963 1326.47858711 162.54246645 1306.03209349 93 1280 c 1
 -94 895 l 1
 290 704 l 1
 489 704 l 2
 543.20981501 704 598.423938194 706.02168793 649.447361943 724.333276402 c 0
 700.470785692 742.644864873 745.737393773 776.435928992 778 820 c 0
 823.559046458 881.518202249 843.876039737 959.448706372 844 1036 c 0
 844.000552523 1036.68237773 l 0
 844.000552523 1115.48348254 821.893139141 1196.01886192 772 1257 c 0
 728.535915703 1310.1233226 664.507472158 1344.59213031 597 1357 c 0
 569.133756103 1362.12181411 540.741097153 1364.00012936 512.40749423 1364.00012936 c 0
 443.328643728 1363.97820059 374.682985281 1354.4967588 307 1341 c 0
  Spiro
    512 1364 o
    307 1341 o
    93 1280 v
    -94 895 v
    290 704 v
    489 704 ]
    778 820 o
    844 1036 o
    772 1257 o
    597 1357 o
    0 0 z
  EndSpiro
797 589 m 0
 761.508227311 633.834355403 712.072863092 667.099634506 657.676404717 684.729457794 c 0
 603.279946341 702.359281082 545.182036978 704 488 704 c 2
 290 704 l 1
 -94 532 l 1
 38 129 l 1
 107.839590684 106.782115287 179.045945055 88.9218104093 251 75 c 0
 322.736945327 61.1201963814 395.051788698 49.1709400945 468 45 c 0
 482.649878113 44.1623678921 497.328256229 43.7540508322 512 44 c 0
 540.907501223 44.484589697 569.802821503 47.612701749 598 54 c 0
 669.488094168 70.1936691253 736.488025974 108.184277738 784 164 c 0
 836.306237001 225.447886704 864.002655996 306.19084946 864.002655996 387.366864915 c 0
 864.002655996 459.539064598 841.790240439 532.419519333 797 589 c 0
  Spiro
    797 589 o
    488 704 [
    290 704 v
    -94 532 v
    38 129 v
    251 75 o
    468 45 o
    512 44 o
    598 54 o
    784 164 o
    864 386 o
    0 0 z
  EndSpiro
EndSplineSet
Fore
SplineSet
496 1424 m 0xf0
 785 1424 908 1258 908 1034 c 0xf0
 908 899 845 779 725 713 c 1
 725 703 l 1
 851 640 928 519 928 377 c 0
 928 376 928 375 928 374 c 0
 927 157 793 -16 506 -16 c 0
 372 -16 239 5 128 30 c 1
 128 151 l 1
 238 127 376 104 496 104 c 0
 731 104 800 223 800 374 c 0xe8
 800 491 740 593 626 628 c 0
 593 641 551 644 502 644 c 2
 256 644 l 5
 256 764 l 5
 503 764 l 2
 550 764 589 767 619 780 c 0
 731 816 780 919 780 1034 c 0
 780 1191 717 1304 496 1304 c 0
 365 1304 237 1277 128 1256 c 1
 128 1376 l 1
 236 1400 355 1424 496 1424 c 0xf0
EndSplineSet
Layer: 2
SplineSet
512 1364 m 0
 483.200494782 1364 454.336747583 1362.14200712 426 1357 c 0
 389.618750006 1350.39823154 354.163451541 1337.87601022 322.625176648 1318.57533886 c 0
 291.086901755 1299.27466751 263.66258211 1273.3912705 242.158877713 1243.31188562 c 0
 199.151468918 1183.15311585 180 1107.95075924 180 1034 c 0
 180 960.049240764 199.151468918 884.846884152 242.158877713 824.688114381 c 0
 263.662582111 794.608729496 291.086901755 768.725332491 322.625176648 749.424661138 c 0
 354.163451541 730.123989785 389.618750006 717.601768457 426 711 c 0
 454.336747583 705.857992884 483.200494782 704 512 704 c 0
 540.799505218 704 569.663252417 705.857992884 598 711 c 0
 634.381249994 717.601768457 669.836548459 730.123989785 701.374823352 749.424661138 c 0
 732.913098245 768.725332491 760.33741789 794.608729496 781.841122287 824.688114381 c 0
 824.848531082 884.846884152 844 960.049240764 844 1034 c 0
 844 1107.95075924 824.848531082 1183.15311585 781.841122287 1243.31188562 c 0
 760.337417889 1273.3912705 732.913098245 1299.27466751 701.374823352 1318.57533886 c 0
 669.836548459 1337.87601022 634.381249994 1350.39823154 598 1357 c 0
 569.663252417 1362.14200712 540.799505218 1364 512 1364 c 0
  Spiro
    512 1364 o
    426 1357 o
    180 1034 o
    426 711 o
    512 704 o
    598 711 o
    844 1034 o
    598 1357 o
    0 0 z
  EndSpiro
512 704 m 0
 483.235121402 704.015601642 454.419895455 702.441624308 426 698 c 0
 388.093098865 692.075692016 350.892627501 680.580259532 317.218999193 662.192292398 c 0
 283.545370884 643.804325265 253.586665127 618.655945381 229.645479005 588.675115076 c 0
 181.76310676 528.713454466 158.819933462 450.725026933 160 374 c 0
 161.170018886 297.928246714 185.721791972 221.590775188 233.083636757 162.049728415 c 0
 280.445481542 102.508681642 351.042603471 63.025716785 426 50 c 0
 454.356028625 45.0724329403 483.225982753 43.3665902001 512 44 c 0
 534.103925058 44.4865793548 556.189307279 46.3786818072 578 50 c 0
 655.153839049 62.8101663052 728.630168729 100.726508241 780.063396797 159.64542109 c 0
 831.496624866 218.564333938 860.825825422 295.854367643 864 374 c 0
 867.125653967 450.951093836 844.305976541 529.689697421 795.869950672 589.566169872 c 0
 771.651937737 619.504406098 741.330670694 644.450865569 707.386854459 662.634030261 c 0
 673.443038224 680.817194953 636.057482922 692.131598814 598 698 c 0
 569.57228123 702.383507414 540.763693927 703.984399001 512 704 c 0
  Spiro
    512 704 o
    426 698 o
    160 374 o
    426 50 o
    512 44 o
    578 50 o
    864 374 o
    598 698 o
    0 0 z
  EndSpiro
EndSplineSet
Layer: 3
Layer: 4
EndChar
StartChar: daggerdbl
Encoding: 8225 8225 587
GlifName: daggerdbl
Width: 1024
VWidth: 0
Flags: W
HStem: 0 21G<512 640> 260 120<256 512 640 896> 1028 120<256 512 640 896> 1388 20G<512 640>
VStem: 512 128<0 260 380 1028 1148 1408>
LayerCount: 5
Back
Fore
SplineSet
512 1408 m 1
 640 1408 l 1
 640 1148 l 1
 896 1148 l 1
 896 1028 l 1
 640 1028 l 1
 640 380 l 1
 896 380 l 1
 896 260 l 1
 640 260 l 1
 640 0 l 1
 512 0 l 1
 512 260 l 1
 256 260 l 1
 256 380 l 1
 512 380 l 1
 512 1028 l 1
 256 1028 l 1
 256 1148 l 1
 512 1148 l 1
 512 1408 l 1
EndSplineSet
Layer: 2
Layer: 3
Layer: 4
EndChar
StartChar: guilsinglright
Encoding: 8250 8250 584
GlifName: guilsinglright
Width: 1024
VWidth: 0
Flags: W
HStem: 1019 20G<416.412 461.965>
VStem: 343 425
LayerCount: 5
Back
Fore
SplineSet
643 571 m 1
 643 581 l 1
 343 971 l 1
 447 1039 l 1
 768 610 l 1
 768 542 l 1
 447 113 l 1
 343 181 l 1
 643 571 l 1
EndSplineSet
Layer: 2
Layer: 3
Layer: 4
EndChar
StartChar: Euro
Encoding: 8364 8364 429
GlifName: E_uro
Width: 1024
VWidth: 0
Flags: W
HStem: -16 120<513.247 896> 512 120<127 243 373 768> 776 120<127 243 372 768> 1304 120<513.899 866>
VStem: 243 123<286.487 512 632 776 896 1112.22>
LayerCount: 5
Back
Fore
SplineSet
896 117 m 5
 896 -3 l 5
 818 -10 737 -16 653 -16 c 4
 376 -16 248 200 245 512 c 5
 127 512 l 5
 127 632 l 5
 243 632 l 5
 243 681 243 727 243 776 c 5
 127 776 l 5
 127 896 l 5
 244 896 l 5
 249 1187 377 1424 653 1424 c 4
 726 1424 797 1421 866 1418 c 5
 866 1298 l 5
 794 1301 721 1304 653 1304 c 4
 457 1304 375 1113 372 896 c 5
 768 896 l 5
 768 776 l 5
 366 776 l 5
 366 728 366 680 366 632 c 5
 768 632 l 5
 768 512 l 5
 373 512 l 5
 374 274 457 104 653 104 c 4
 731 104 814 110 896 117 c 5
EndSplineSet
Layer: 2
Layer: 3
Layer: 4
EndChar
StartChar: integral
Encoding: 8747 8747 572
GlifName: integral
Width: 1024
VWidth: 0
Flags: W
HStem: -400 120<256 481.396> 1304 120<670.604 896>
VStem: 512 128<-234.213 1258.21>
LayerCount: 5
Back
Fore
SplineSet
256 -391 m 5
 256 -271 l 5
 297 -275 347 -280 384 -280 c 4
 433 -280 464 -263 484 -236 c 4
 512 -198 512 -152 512 -105 c 6
 512 1129 l 6
 512 1190 512 1280 585 1356 c 4
 627 1400 686 1424 758 1424 c 4
 808 1424 853 1419 896 1415 c 5
 896 1295 l 5
 855 1299 805 1304 768 1304 c 4
 719 1304 688 1287 668 1260 c 4
 640 1222 640 1176 640 1129 c 6
 640 -105 l 6
 640 -166 640 -257 567 -332 c 4
 525 -375 466 -400 394 -400 c 4
 344 -400 299 -395 256 -391 c 5
EndSplineSet
Layer: 2
Layer: 3
Layer: 4
EndChar
StartChar: notequal
Encoding: 8800 8800 569
GlifName: notequal
Width: 1024
VWidth: -128
Flags: W
HStem: 0 21G<224 367.846> 260 120<128 353 546 1024> 772 120<128 606 799 1024>
LayerCount: 5
Back
SplineSet
256 58 m 29
 896 1350 l 1053
EndSplineSet
Fore
SplineSet
546 380 m 5
 1024 380 l 5
 1024 260 l 5
 486 260 l 5
 358 0 l 5
 224 0 l 5
 353 260 l 5
 128 260 l 5
 128 380 l 5
 412 380 l 5
 606 772 l 5
 128 772 l 5
 128 892 l 5
 666 892 l 5
 794 1152 l 5
 928 1152 l 5
 799 892 l 5
 1024 892 l 5
 1024 772 l 5
 740 772 l 5
 546 380 l 5
EndSplineSet
Layer: 2
Layer: 3
Layer: 4
EndChar
StartChar: lessequal
Encoding: 8804 8804 567
GlifName: lessequal
Width: 1024
VWidth: 0
Flags: W
HStem: 132 120<128 1024>
LayerCount: 5
Back
Fore
SplineSet
1024 252 m 1
 1024 132 l 1
 128 132 l 1
 128 252 l 1
 1024 252 l 1
274 773 m 1
 274 763 l 1
 1024 514 l 1
 1024 384 l 1
 128 688 l 1
 128 848 l 1
 1024 1152 l 1
 1024 1022 l 1
 274 773 l 1
EndSplineSet
Layer: 2
Layer: 3
Layer: 4
EndChar
StartChar: uni266E
Encoding: 9838 9838 610
GlifName: uni266E_
Width: 1024
VWidth: 0
Flags: W
HStem: 0 21G<768 896> 1388 20G<384 512>
VStem: 384 128<460 854 980 1408> 768 128<0 420 546 940>
LayerCount: 5
Back
SplineSet
384 1344 m 5
 512 1344 l 5
 512 981 l 5
 768 1066 l 5
 768 1472 l 5
 896 1472 l 5
 896 1109 l 5
 1003 1145 l 5
 1045 1031 l 5
 896 982 l 5
 896 589 l 5
 1003 625 l 5
 1045 511 l 5
 896 462 l 5
 896 64 l 5
 768 64 l 5
 768 419 l 5
 512 334 l 5
 512 -64 l 5
 384 -64 l 5
 384 291 l 5
 277 255 l 5
 235 369 l 5
 384 418 l 5
 384 811 l 5
 277 775 l 5
 235 889 l 5
 384 938 l 5
 384 1344 l 5
768 546 m 5
 768 939 l 5
 512 854 l 5
 512 461 l 5
 768 546 l 5
EndSplineSet
Fore
SplineSet
512 854 m 1
 512 460 l 1
 768 546 l 1
 768 940 l 1
 512 854 l 1
896 1109 m 1
 896 0 l 1
 768 0 l 1
 768 420 l 1
 384 292 l 1
 384 1408 l 1
 512 1408 l 1
 512 980 l 1
 896 1109 l 1
EndSplineSet
Layer: 2
Layer: 3
Layer: 4
EndChar
StartChar: bar1
Encoding: 1114135 -1 636
GlifName: bar1
Width: 1024
VWidth: 0
Flags: W
VStem: 640 128<-128 1536>
LayerCount: 5
Back
Fore
SplineSet
768 1536 m 5
 768 -128 l 5
 640 -128 l 5
 640 1536 l 5
 768 1536 l 5
EndSplineSet
Layer: 2
Layer: 3
Layer: 4
EndChar
StartChar: bar2
Encoding: 1114136 -1 637
GlifName: bar2
Width: 1024
VWidth: 0
Flags: W
VStem: 384 128<-128 1536>
LayerCount: 5
Back
Fore
SplineSet
512 1536 m 5
 512 -128 l 5
 384 -128 l 5
 384 1536 l 5
 512 1536 l 5
EndSplineSet
Layer: 2
Layer: 3
Layer: 4
EndChar
StartChar: download
Encoding: 1114112 -1 613
GlifName: download
Width: 1024
VWidth: 0
Flags: W
HStem: 0 512<-640 -384 512 768> 0 256<-384 512> 1387 20G<-64 192>
VStem: -640 256<256 512> -64 256<896 1407> 512 256<256 512>
CounterMasks: 1 1c
LayerCount: 5
Back
Fore
SplineSet
-640 512 m 1xbc
 -384 512 l 1xbc
 -384 256 l 1
 512 256 l 1x7c
 512 512 l 1
 768 512 l 1
 768 0 l 1
 -640 0 l 1
 -640 512 l 1xbc
-64 1407 m 1
 192 1407 l 1
 192 896 l 1
 512 896 l 1
 64 448 l 1
 -384 896 l 1
 -64 896 l 1
 -64 1407 l 1
EndSplineSet
Layer: 2
Layer: 3
Layer: 4
Ligature2: "'liga' Standard Ligatures lookup 12 subtable" o w n l o a d I c o n
LCarets2: 10 0 0 0 0 0 0 0 0 0 0
EndChar
StartChar: equalmore
Encoding: 1114132 -1 633
GlifName: equalmore
Width: 1024
VWidth: 0
Flags: W
HStem: 260 120<256 896> 772 120<256 896>
LayerCount: 5
Back
Fore
SplineSet
256 380 m 1
 896 380 l 1
 896 260 l 1
 256 260 l 1
 256 380 l 1
256 892 m 1
 896 892 l 1
 896 772 l 1
 256 772 l 1
 256 892 l 1
EndSplineSet
Layer: 2
Layer: 3
Layer: 4
EndChar
StartChar: equalshift
Encoding: 1114138 -1 639
GlifName: equalshift
Width: 1024
VWidth: 0
Flags: W
HStem: 260 120<0 896> 772 120<0 896>
LayerCount: 5
Back
Fore
SplineSet
0 380 m 1
 896 380 l 1
 896 260 l 1
 0 260 l 1
 0 380 l 1
0 892 m 1
 896 892 l 1
 896 772 l 1
 0 772 l 1
 0 892 l 1
EndSplineSet
Layer: 2
Layer: 3
Layer: 4
EndChar
StartChar: greater1
Encoding: 1114139 -1 640
GlifName: greater1
Width: 1024
VWidth: 0
Flags: W
LayerCount: 5
Back
Fore
SplineSet
1019 571 m 5
 1019 581 l 5
 508 1057 l 5
 594 1147 l 5
 1152 621 l 5
 1152 531 l 5
 594 5 l 5
 508 95 l 5
 1019 571 l 5
EndSplineSet
Layer: 2
Layer: 3
Layer: 4
EndChar
StartChar: l.base
Encoding: 1114161 -1 663
Width: 1024
VWidth: 0
Flags: W
HStem: 0 120<256 512 640 896> 1288 120<256 512>
VStem: 512 128<120 1288>
LayerCount: 5
Back
Fore
SplineSet
256 0 m 1
 256 120 l 1
 512 120 l 1
 512 1288 l 1
 256 1288 l 1
 256 1408 l 1
 640 1408 l 1
 640 120 l 1
 896 120 l 1
 896 0 l 1
 256 0 l 1
EndSplineSet
Layer: 2
Layer: 3
Layer: 4
EndChar
StartChar: less2
Encoding: 1114142 -1 643
GlifName: less2
Width: 1024
VWidth: 0
Flags: W
LayerCount: 5
Back
Fore
SplineSet
133 571 m 5
 644 95 l 5
 558 5 l 5
 0 531 l 5
 0 621 l 5
 558 1147 l 5
 644 1057 l 5
 133 581 l 5
 133 571 l 5
EndSplineSet
Layer: 2
Layer: 3
Layer: 4
EndChar
StartChar: ligaarrowright
Encoding: 1114123 -1 624
GlifName: ligaarrowright
Width: 1024
VWidth: 0
Flags: W
HStem: 516 120<-640 576>
LayerCount: 5
Back
Fore
SplineSet
576 516 m 5
 -640 516 l 5
 -640 636 l 5
 576 636 l 5
 124 1057 l 5
 210 1147 l 5
 768 621 l 5
 768 531 l 5
 210 5 l 5
 124 95 l 5
 576 516 l 5
EndSplineSet
Layer: 2
Layer: 3
Layer: 4
EndChar
StartChar: ligaarrowrighttwoheads
Encoding: 1114126 -1 627
GlifName: ligaarrowrighttwoheads
Width: 1024
VWidth: 0
Flags: W
HStem: 516 120<-1536 -64>
LayerCount: 5
Back
Fore
SplineSet
507 571 m 5
 507 581 l 5
 -4 1057 l 5
 82 1147 l 5
 640 621 l 5
 640 531 l 5
 82 5 l 5
 -4 95 l 5
 507 571 l 5
-64 516 m 5
 -1536 516 l 5
 -1536 636 l 5
 -64 636 l 5
 -516 1057 l 5
 -430 1147 l 5
 128 621 l 5
 128 531 l 5
 -430 5 l 5
 -516 95 l 5
 -64 516 l 5
EndSplineSet
Layer: 2
Layer: 3
Layer: 4
EndChar
StartChar: ligadoubleslash
Encoding: 1114166 -1 671
Width: 1024
VWidth: 0
Flags: W
LayerCount: 5
Back
Fore
SplineSet
-658 -155 m 5
 -771 -102 l 5
 18 1563 l 5
 131 1510 l 5
 -658 -155 l 5
110 -155 m 1
 -3 -102 l 1
 786 1563 l 1
 899 1510 l 1
 110 -155 l 1
EndSplineSet
Layer: 2
Layer: 3
Layer: 4
EndChar
StartChar: ligatrippleslash
Encoding: 1114167 -1 672
Width: 1024
VWidth: 0
Flags: W
LayerCount: 5
Back
Fore
SplineSet
-1554 -155 m 5
 -1667 -102 l 5
 -878 1563 l 5
 -765 1510 l 5
 -1554 -155 l 5
-786 -155 m 5
 -899 -102 l 5
 -110 1563 l 5
 3 1510 l 5
 -786 -155 l 5
-18 -155 m 5
 -131 -102 l 5
 658 1563 l 5
 771 1510 l 5
 -18 -155 l 5
EndSplineSet
Layer: 2
Layer: 3
Layer: 4
EndChar
StartChar: mm
Encoding: 1114133 -1 634
GlifName: mm
Width: 1024
VWidth: 0
Flags: W
HStem: 0 21G<256 384 640 768 1024 1152 1408 1536 1792 1920> 920 120<436.068 608.961 797.549 992.961 1181.55 1376.96 1565.55 1761.29> 1004 20G<256 384>
VStem: 256 128<0 890.704 949 1024> 640 128<0 890.704> 1024 128<0 890.704> 1408 128<0 890.704> 1792 128<0 887.948>
LayerCount: 5
Back
Fore
SplineSet
1664 920 m 0xdf
 1621 920 1587 903 1566 879 c 0
 1536 845 1536 797 1536 730 c 2
 1536 0 l 1
 1408 0 l 1
 1408 730 l 2
 1408 797 1408 845 1378 879 c 0
 1357 903 1323 920 1280 920 c 0
 1237 920 1203 903 1182 879 c 0
 1152 845 1152 797 1152 730 c 2
 1152 0 l 1
 1024 0 l 1
 1024 730 l 2
 1024 797 1024 845 994 879 c 0
 973 903 939 920 896 920 c 0
 853 920 819 903 798 879 c 0
 768 845 768 797 768 730 c 2
 768 0 l 1
 640 0 l 1
 640 730 l 2
 640 797 640 845 610 879 c 0
 589 903 555 920 512 920 c 0xdf
 469 920 435 903 414 879 c 0
 384 845 384 797 384 730 c 2
 384 0 l 1
 256 0 l 1
 256 1024 l 1
 384 1024 l 1xbf
 384 949 l 1
 394 949 l 1
 434 1008 482 1040 542 1040 c 0
 626 1040 690 992 725 929 c 1
 780 1001 844 1040 926 1040 c 0
 1010 1040 1074 992 1109 929 c 1
 1164 1001 1228 1040 1310 1040 c 0
 1394 1040 1458 992 1493 929 c 1
 1548 1001 1612 1040 1694 1040 c 0
 1770 1040 1831 1004 1868 954 c 0
 1920 884 1920 814 1920 730 c 2
 1920 0 l 1
 1792 0 l 1
 1792 730 l 2
 1792 797 1792 845 1762 879 c 0
 1741 903 1707 920 1664 920 c 0xdf
EndSplineSet
Layer: 2
Layer: 3
Layer: 4
EndChar
